<svg width="230" height="132" viewBox="0 0 230 132" fill="none" xmlns="http://www.w3.org/2000/svg">
<rect width="230" height="132" rx="12" fill="#EBF1F5"/>
<path fill-rule="evenodd" clip-rule="evenodd" d="M88.2229 25.2825C87.8004 25.7019 87.0209 27.424 86.8269 28.367C86.647 29.2408 86.6586 31.5239 86.8453 31.9746C86.9169 32.1473 86.898 32.1656 86.724 32.0925C85.5723 31.609 85.0518 31.4793 84.0536 31.4273C82.8168 31.3629 81.8217 31.4935 80.6186 31.878C76.6711 33.1398 73.1909 36.6334 72.0395 40.4902C71.6439 41.8157 71.6148 43.7493 71.9745 44.8194C72.1064 45.2118 72.2143 45.5468 72.2143 45.5638C72.2143 45.5808 71.6718 45.5991 71.0089 45.6044C70.2872 45.6102 69.4812 45.6875 69 45.7969C67.4128 46.158 66 47.0618 66 47.7159C66 47.9779 66.47 48.4504 66.8499 48.57C67.1727 48.6718 67.6965 49.5432 67.7686 50.0986C67.8039 50.3704 67.8583 50.7706 67.8895 50.9878C67.9678 51.5341 68.463 52.1701 69.0171 52.4364C69.2729 52.5593 69.837 52.7098 70.2707 52.7709C70.7044 52.8319 71.1384 52.9249 71.235 52.9777C71.3316 53.0304 71.7011 53.4717 72.0558 53.9583C72.9782 55.2234 73.2979 55.2955 73.9946 54.3952C74.847 53.2934 75.3777 51.3014 75.2979 49.5029C75.2712 48.9033 75.2708 48.4129 75.2968 48.4129C75.3228 48.4129 75.6403 48.4926 76.0024 48.59C76.8396 48.8153 78.7414 48.8188 79.7697 48.5969C83.2858 47.8381 86.9069 44.9876 88.582 41.66C89.8999 39.042 90.0569 36.7915 89.0854 34.4433C89.012 34.2658 89.0404 34.2532 89.3585 34.3226C89.9813 34.4583 92.0562 34.399 92.8929 34.2215C94.4594 33.8893 96 32.9333 96 32.2933C96 32.0092 95.5709 31.5041 95.3295 31.5041C95.1636 31.5041 94.5834 30.9244 94.4066 30.5821C94.341 30.4553 94.2387 30.0104 94.1791 29.5936C93.9539 28.0174 93.382 27.4647 91.7455 27.2423C91.2864 27.1798 90.8061 27.0618 90.6782 26.98C90.5504 26.8982 90.1932 26.4685 89.8844 26.0252C89.1226 24.9314 88.7461 24.7632 88.2229 25.2825Z" fill="#758796"/>
<path fill-rule="evenodd" clip-rule="evenodd" d="M125.634 21.3724C125.366 21.3753 124.923 21.4109 124.648 21.4515C124.057 21.5388 123.969 21.6908 123.66 23.1605C123.295 24.8992 123.62 26.3925 124.712 27.9858C126.203 30.1617 128.526 31.5372 131.389 31.9397C132.136 32.0446 133.049 32.1169 133.42 32.1001C134.087 32.0702 134.094 32.0661 134.219 31.6089C134.289 31.3553 134.341 30.6198 134.335 29.9742C134.302 26.6704 132.369 23.5917 129.471 22.2288C128.551 21.7964 126.604 21.3618 125.634 21.3724ZM122.39 22.079C119.729 23.2728 117.834 25.5726 117.256 28.3082C117.139 28.8611 117.074 29.3585 117.11 29.4133C117.147 29.4681 117.441 29.499 117.764 29.4818C119.807 29.373 121.951 28.1026 122.721 26.5446C122.898 26.1874 122.906 26.0053 122.775 25.2914C122.644 24.5758 122.657 24.2689 122.869 23.1504C123.004 22.4323 123.084 21.8383 123.045 21.8306C123.007 21.8228 122.712 21.9346 122.39 22.079ZM117.186 21.0012C116.059 21.0255 115.002 21.3973 113.97 22.1321C113.137 22.7249 111.833 24.0199 111.776 24.3103C111.744 24.4731 112.019 24.5986 113.365 25.0364C114.686 25.4662 115.782 25.537 116.944 25.2673C117.617 25.1112 117.717 25.0442 118.155 24.4516C118.685 23.7338 120.256 22.265 120.705 22.0664C120.975 21.9473 120.981 21.931 120.793 21.8323C119.825 21.324 118.318 20.9769 117.186 21.0012ZM134.824 24.3067C134.658 24.3015 134.234 24.2976 133.882 24.2982L133.241 24.2989L133.69 25.0268C134.204 25.8619 134.657 26.9109 134.84 27.6909C134.948 28.1529 135.071 28.3096 135.705 28.789C136.736 29.5684 137.79 29.9369 139.273 30.0366C140.663 30.13 140.965 30.1153 140.997 29.9531C141.054 29.6627 140.333 27.9767 139.785 27.1172C139.11 26.06 138.31 25.3533 137.248 24.8784C136.579 24.5791 135.515 24.328 134.824 24.3067ZM122.744 27.8529C121.768 29.075 120.102 29.9699 118.38 30.1979C117.977 30.2514 117.58 30.2828 117.497 30.2679C117.083 30.193 116.999 30.3546 117.065 31.0976C117.337 34.1321 119.289 36.8854 122.092 38.1871C123.729 38.9479 126.125 39.1466 127.847 38.6642C130.502 37.9201 132.856 35.8013 133.716 33.381L133.901 32.8582L133.217 32.8828C130.568 32.9779 127.589 31.9239 125.606 30.19C125.084 29.7336 124.496 29.0475 124.018 28.3365L123.26 27.2076L122.744 27.8529ZM122.099 32.3489C122.265 32.593 122.351 32.8761 122.314 33.0616C122.278 33.2471 122.092 33.4778 121.846 33.6423C121.6 33.8069 121.315 33.8915 121.128 33.8554C120.718 33.7762 120.248 33.0847 120.327 32.6779C120.364 32.4923 120.55 32.2617 120.796 32.0971C121.041 31.9326 121.327 31.8479 121.514 31.8841C121.701 31.9202 121.933 32.1048 122.099 32.3489ZM129.697 33.816C129.863 34.0601 129.948 34.3432 129.912 34.5287C129.834 34.9263 129.135 35.4017 128.741 35.3256C127.891 35.1615 127.699 33.9381 128.456 33.5099C128.962 33.224 129.361 33.3227 129.697 33.816ZM123.589 36.0857C123.609 36.1941 123.606 36.3753 123.584 36.4883C123.562 36.6013 123.646 36.8568 123.771 37.056C124.225 37.7819 125.288 37.6288 125.682 36.7808C125.827 36.4709 125.919 36.4052 126.147 36.4494C126.778 36.5712 126.241 37.7858 125.398 38.145C124.589 38.489 123.728 38.2894 123.191 37.6337C122.915 37.2968 122.727 36.358 122.874 36.0473C123.02 35.7371 123.532 35.7646 123.589 36.0857ZM128.956 39.1011C128.239 39.4266 126.716 39.7339 125.741 39.75C123.592 39.7856 120.98 38.8243 119.519 37.4604L119.122 37.0896L118.902 37.7937C118.573 38.8443 117.906 40.3469 117.379 41.2226C117.122 41.6497 115.984 44.2316 114.849 46.9602C113.715 49.6888 112.742 52.0074 112.687 52.1126C112.593 52.2936 113.052 52.3937 121.186 53.9645C128.39 55.3557 129.79 55.5992 129.816 55.466C129.908 54.9945 129.703 44.0989 129.587 43.3241C129.414 42.1677 129.396 41.0352 129.529 39.8194C129.587 39.296 129.601 38.8659 129.561 38.8635C129.521 38.8612 129.249 38.9681 128.956 39.1011ZM117.277 37.1033C116.809 37.2807 115.251 37.8493 113.816 38.3666C110.95 39.3993 110.553 39.5971 110.241 40.1495C109.629 41.2345 110.237 42.5835 111.445 42.8167C111.89 42.9027 112.257 42.8079 114.177 42.1107L116.394 41.3054L116.921 40.3842C117.669 39.0778 118.483 36.8208 118.218 36.7907C118.169 36.7851 117.746 36.9257 117.277 37.1033ZM130.309 40.0903C130.18 41.1866 130.252 42.9699 130.454 43.7197C130.594 44.2387 130.755 44.4213 132.205 45.7125C133.979 47.2921 134.405 47.4955 135.264 47.1735C136.375 46.7568 136.813 45.3653 136.128 44.4282C135.909 44.1278 132.398 40.9095 130.87 39.6071L130.411 39.2168L130.309 40.0903ZM113.974 56.4575C113.423 59.2705 113.406 59.4128 113.563 59.9496C113.948 61.2688 115.616 61.6443 116.555 60.6231C116.84 60.3131 116.903 60.0789 117.458 57.2461L118.054 54.2022L114.548 53.525L113.974 56.4575ZM123.303 58.3748C122.749 61.2077 122.719 61.4482 122.866 61.8417C123.351 63.1379 125.04 63.4106 125.894 62.3308C126.242 61.8915 126.28 61.7533 126.831 58.9403L127.405 56.0079L123.899 55.3307L123.303 58.3748Z" fill="#758796"/>
<path fill-rule="evenodd" clip-rule="evenodd" d="M37.1001 22.1102C36.6502 22.1627 35.445 22.2126 34.4219 22.221C32.3787 22.2378 31.78 22.3854 31.6198 22.9114C31.4175 23.5753 30.3588 24.597 29.2807 25.1689C23.6991 28.1289 22.6227 28.7953 22.2735 29.5071C22.0091 30.0464 21.7637 31.5026 21.6244 33.3594C21.5461 34.403 21.392 36.2579 21.282 37.4815C21.172 38.705 21.0563 40.2162 21.025 40.8397C20.9719 41.8955 20.9865 41.9837 21.2373 42.1233C22.0193 42.5585 26.4361 42.8001 26.7944 42.4272C26.8777 42.3404 27.0128 41.6632 27.0943 40.9223L27.1607 40.3191C27.1784 40.159 27.4036 40.1401 27.4477 40.2949C27.6806 41.1133 27.9697 42.38 28.5674 45.2022L28.8716 46.6382C28.9458 46.9884 28.9822 47.3456 28.9801 47.7036L28.9426 54.1039L28.9051 60.4874C28.903 60.8305 29.0856 61.1483 29.383 61.3195C30.0872 61.7246 30.9169 61.8667 33.1595 61.9664C34.7929 62.0391 35.6382 62.0027 37.736 61.7692C41.6906 61.3294 43.0448 61.106 44.1327 60.7142C45.3937 60.2603 47.1676 59.1951 47.1676 58.892C47.1676 58.7701 47.0887 58.3487 46.9923 57.9557C46.7573 56.9982 46.5711 55.1404 46.4091 52.1377C46.3353 50.7702 46.2209 49.1819 46.1549 48.6079C45.9478 46.806 46.0483 36.732 46.2712 36.9638C46.3102 37.0043 46.4304 37.6076 46.5381 38.3043C46.7833 39.8897 46.8552 39.9467 48.4889 39.852C49.5999 39.7876 51.5197 39.303 51.8734 38.9979C52.1123 38.7916 52.0261 37.7071 51.5028 34.3408C51.2678 32.8294 51.0409 31.2689 50.9985 30.8731C50.8958 29.9132 50.4009 28.3528 49.9261 27.492C49.4227 26.5792 48.8824 26.3223 46.0242 25.6375C42.9708 24.9059 41.499 24.4145 41.1271 24.0029C40.9599 23.8179 40.6791 23.3888 40.5032 23.0495C39.9675 22.0165 39.3528 21.8468 37.1001 22.1102Z" fill="#758796"/>
<path fill-rule="evenodd" clip-rule="evenodd" d="M140.629 77.8893C140.251 77.8283 139.259 77.5909 138.425 77.3617C136.759 76.9038 136.237 76.886 135.986 77.2779C135.669 77.7724 134.572 78.3611 133.563 78.5785C128.34 79.7036 127.311 79.9985 126.863 80.4982C126.523 80.8769 125.988 82.0074 125.447 83.4889C125.143 84.3216 124.591 85.7983 124.219 86.7703C123.848 87.7424 123.406 88.9477 123.237 89.4488C122.95 90.2972 122.942 90.3725 123.114 90.5442C123.65 91.0795 127.188 92.2956 127.565 92.0743C127.653 92.0228 127.919 91.5018 128.156 90.9166L128.349 90.4402C128.4 90.3138 128.588 90.3503 128.588 90.4867C128.589 91.2077 128.532 92.307 128.369 94.7457L128.286 95.9865C128.265 96.2892 128.213 96.5888 128.129 96.8801L125.123 107.285C125.043 107.564 125.118 107.865 125.321 108.073C125.8 108.566 126.443 108.873 128.244 109.472C129.557 109.908 130.253 110.074 132.013 110.367C135.332 110.921 136.485 111.052 137.461 110.983C138.591 110.904 140.28 110.445 140.35 110.198C140.378 110.099 140.411 109.737 140.423 109.394C140.452 108.56 140.728 107.002 141.288 104.517C141.543 103.385 141.816 102.064 141.894 101.581C142.141 100.064 144.543 91.8743 144.671 92.1147C144.693 92.1568 144.652 92.6763 144.579 93.2691C144.413 94.6181 144.459 94.6813 145.81 94.981C146.728 95.1849 148.402 95.2329 148.76 95.0657C149.002 94.9527 149.182 94.0486 149.531 91.1836C149.688 89.8972 149.863 88.5727 149.919 88.2402C150.057 87.434 150.014 86.0477 149.826 85.2364C149.626 84.3761 149.246 84.042 147.078 82.8242C144.762 81.5231 143.678 80.7829 143.47 80.3616C143.377 80.1722 143.247 79.7576 143.182 79.4403C142.984 78.4746 142.523 78.1944 140.629 77.8893Z" fill="#758796"/>
<path fill-rule="evenodd" clip-rule="evenodd" d="M171.763 30.4841C163.574 32.4494 157.23 34.0807 157.228 34.2217C157.224 34.7677 159.138 37.1431 160.462 38.2349C162.112 39.5947 164.742 41.0347 167.022 41.8262C168.612 42.3782 171.915 43.0677 172.971 43.0677C173.385 43.0677 174.941 41.3534 180.18 35.126C183.855 30.7579 186.861 27.1309 186.861 27.066C186.861 26.864 186.663 26.9089 171.763 30.4841ZM183.581 32.5088C181.217 35.3282 178.138 39.0031 176.738 40.675L174.193 43.715V49.9654V56.2156L180.549 48.6629C184.045 44.509 187.152 40.7874 187.453 40.3926L188 39.6751L187.94 33.529L187.879 27.3826L183.581 32.5088ZM179.078 32.7805C179.574 33.2144 179.661 33.4371 179.535 33.9472C179.196 35.3227 176.318 35.6639 175.143 34.4676C174.633 33.9478 174.595 33.8064 174.829 33.2844C175.161 32.541 175.794 32.2773 177.291 32.2587C178.208 32.2474 178.6 32.3616 179.078 32.7805ZM167.18 35.2112C167.908 35.7533 167.98 36.1853 167.453 36.8478C166.626 37.8876 163.332 37.7011 162.987 36.5948C162.47 34.9367 165.478 33.9442 167.18 35.2112ZM157 41.933V47.9785L157.68 49.0574C159.245 51.5408 162.611 54.1272 165.924 55.3933C167.769 56.0987 170.716 56.8236 172.157 56.927L173.175 57L173.234 50.552L173.294 44.1039L170.933 43.7134C165.567 42.8261 160.285 40.1175 157.88 37.0212L157 35.8873V41.933ZM174.687 37.9247C174.913 38.1328 175.098 38.4366 175.098 38.5996C175.098 39.5678 172.528 39.9913 171.71 39.1581C170.48 37.9067 173.369 36.7104 174.687 37.9247ZM185.791 38.5319C186.211 39.8146 185.478 41.5208 184.802 40.833C184.443 40.4677 184.318 39.0851 184.582 38.3875C184.889 37.5712 185.5 37.6439 185.791 38.5319ZM179.641 41.4248C180.064 41.773 180.18 42.1338 180.254 43.3247C180.331 44.5705 180.27 44.8915 179.854 45.4281C178.926 46.6263 177.814 46.0319 177.467 44.1525C177.278 43.1278 177.686 41.8018 178.333 41.3412C178.949 40.9018 179.011 40.906 179.641 41.4248ZM162.077 45.4219C162.822 46.5045 162.268 48.3642 161.2 48.3642C160.456 48.3642 160.054 47.7577 160.054 46.6371C160.054 46.1061 160.194 45.5002 160.364 45.2908C160.803 44.7527 161.662 44.8183 162.077 45.4219ZM169.566 45.9359C170.343 46.7269 170.343 48.2834 169.566 49.1366C168.849 49.9244 168.433 49.9051 167.587 49.0441C166.965 48.411 166.909 48.2369 167.016 47.2685C167.213 45.4919 168.479 44.83 169.566 45.9359Z" fill="#758796"/>
<path fill-rule="evenodd" clip-rule="evenodd" d="M93.1416 84.0196C100.274 85.7228 105.8 87.1366 105.801 87.2588C105.805 87.732 104.138 89.7907 102.985 90.7369C101.548 91.9154 99.2571 93.1634 97.2714 93.8494C95.8863 94.3278 93.0092 94.9253 92.0899 94.9253C91.7291 94.9253 90.3737 93.4396 85.8106 88.0425C82.6102 84.2569 79.9917 81.1134 79.9917 81.0572C79.9917 80.8821 80.1643 80.921 93.1416 84.0196ZM82.8486 85.7743C84.9076 88.2178 87.5896 91.4027 88.8089 92.8516L91.0255 95.4863V100.903V106.32L85.4893 99.7745C82.4443 96.1745 79.7387 92.949 79.4766 92.607L79 91.9851L79.0524 86.6584L79.105 81.3316L82.8486 85.7743ZM86.7704 86.0098C86.3389 86.3858 86.2628 86.5788 86.3724 87.0209C86.6677 88.213 89.1744 88.5087 90.1978 87.4719C90.6425 87.0215 90.6752 86.8989 90.4718 86.4465C90.182 85.8022 89.6307 85.5737 88.3273 85.5575C87.5282 85.5478 87.1869 85.6467 86.7704 86.0098ZM97.1335 88.1164C96.4993 88.5862 96.4364 88.9606 96.8955 89.5348C97.6159 90.4359 100.485 90.2742 100.785 89.3155C101.236 87.8785 98.616 87.0183 97.1335 88.1164ZM106 93.942V99.1814L105.408 100.116C104.044 102.269 101.113 104.51 98.2276 105.608C96.6203 106.219 94.0541 106.847 92.7988 106.937L91.9122 107L91.8603 101.412L91.8085 95.8234L93.8651 95.4849C98.5382 94.7159 103.139 92.3685 105.233 89.6851L106 88.7023V93.942ZM90.5952 90.468C90.3984 90.6485 90.2374 90.9117 90.2374 91.053C90.2374 91.8921 92.4755 92.2591 93.1883 91.537C94.259 90.4525 91.7431 89.4156 90.5952 90.468ZM80.924 90.9943C80.5583 92.106 81.1969 93.5847 81.7855 92.9886C82.0979 92.672 82.2065 91.4737 81.9774 90.8692C81.7092 90.1617 81.177 90.2248 80.924 90.9943ZM86.2804 93.5015C85.9123 93.8033 85.811 94.116 85.7468 95.148C85.6796 96.2278 85.7326 96.506 86.095 96.971C86.9036 98.0094 87.872 97.4943 88.1737 95.8655C88.3382 94.9774 87.9827 93.8282 87.42 93.429C86.8833 93.0482 86.8287 93.0518 86.2804 93.5015ZM101.578 96.9656C100.929 97.9039 101.412 99.5157 102.342 99.5157C102.99 99.5157 103.34 98.99 103.34 98.0188C103.34 97.5586 103.218 97.0335 103.07 96.8521C102.687 96.3856 101.94 96.4425 101.578 96.9656ZM95.0558 97.4111C94.379 98.0967 94.3786 99.4456 95.0552 100.185C95.68 100.868 96.0426 100.851 96.7793 100.105C97.3207 99.5562 97.3696 99.4053 97.2762 98.5661C97.1048 97.0263 96.0018 96.4527 95.0558 97.4111Z" fill="#758796"/>
<path fill-rule="evenodd" clip-rule="evenodd" d="M51.9108 84.0375C51.9074 84.052 51.83 84.0448 51.7302 84.0206C51.6304 83.9964 51.553 83.9892 51.5496 84.0037C51.5463 84.0178 51.4771 84.013 51.394 83.9929C51.3108 83.9727 51.2417 83.9679 51.2383 83.982C51.2351 83.996 51.1875 83.9965 51.1326 83.9832L51.0328 83.9591L50.8418 84.7719C50.7185 85.2969 50.642 85.5826 50.6259 85.5787C50.6106 85.575 50.5731 85.6912 50.5293 85.8775C50.4856 86.0637 50.448 86.1799 50.4328 86.1762C50.4185 86.1728 50.3899 86.2464 50.366 86.348C50.3422 86.4496 50.3136 86.5232 50.2993 86.5198C50.2854 86.5164 50.2584 86.5815 50.2386 86.6661C50.2187 86.7508 50.1917 86.8159 50.1778 86.8125C50.1641 86.8092 50.1421 86.8522 50.129 86.9081C50.1158 86.9639 50.0939 87.0069 50.0802 87.0036C50.0664 87.0003 50.0418 87.0547 50.0254 87.1246C50.009 87.1944 49.9843 87.2489 49.9706 87.2455C49.9569 87.2422 49.9349 87.2852 49.9218 87.3411C49.9086 87.397 49.8867 87.44 49.8729 87.4367C49.8592 87.4333 49.8399 87.4649 49.8301 87.5068C49.8202 87.5487 49.801 87.5803 49.7872 87.577C49.7735 87.5737 49.7516 87.6167 49.7384 87.6726C49.7253 87.7284 49.7033 87.7714 49.6896 87.7681C49.6759 87.7648 49.6566 87.7964 49.6468 87.8383C49.6369 87.8802 49.6176 87.9118 49.6039 87.9084C49.5902 87.9051 49.5682 87.9481 49.5551 88.004C49.542 88.0599 49.52 88.1029 49.5063 88.0996C49.4925 88.0962 49.4733 88.1278 49.4634 88.1697C49.4536 88.2116 49.4343 88.2432 49.4206 88.2399C49.4068 88.2366 49.3876 88.2681 49.3777 88.31C49.3679 88.352 49.3486 88.3835 49.3349 88.3802C49.3211 88.3769 49.3045 88.397 49.298 88.425C49.2914 88.4529 49.2748 88.473 49.2611 88.4697C49.2474 88.4664 49.2281 88.498 49.2182 88.5399C49.2084 88.5818 49.1891 88.6134 49.1754 88.61C49.1617 88.6067 49.1451 88.6269 49.1385 88.6548C49.132 88.6827 49.1154 88.7029 49.1016 88.6996C49.0879 88.6962 49.0686 88.7278 49.0588 88.7697C49.0489 88.8116 49.0296 88.8432 49.0159 88.8399C49.0022 88.8366 48.9856 88.8567 48.9791 88.8846C48.9725 88.9126 48.9559 88.9327 48.9422 88.9294C48.9284 88.9261 48.9092 88.9577 48.8993 88.9996C48.8895 89.0415 48.8702 89.073 48.8565 89.0697C48.8427 89.0664 48.8261 89.0865 48.8196 89.1145C48.813 89.1424 48.7964 89.1626 48.7827 89.1592C48.769 89.1559 48.7524 89.1761 48.7458 89.204C48.7393 89.2319 48.7227 89.2521 48.7089 89.2488C48.6952 89.2454 48.6786 89.2656 48.6721 89.2935C48.6655 89.3215 48.6489 89.3416 48.6352 89.3383C48.6215 89.335 48.6028 89.364 48.5936 89.4028C48.5839 89.4443 48.5529 89.4835 48.5186 89.498C48.4864 89.5115 48.4553 89.5428 48.4494 89.5677C48.4436 89.5925 48.4276 89.6102 48.4139 89.6068C48.4002 89.6035 48.3836 89.6237 48.377 89.6516C48.3704 89.6795 48.3538 89.6997 48.3401 89.6964C48.3264 89.693 48.3098 89.7132 48.3032 89.7411C48.2967 89.7691 48.2801 89.7892 48.2664 89.7859C48.2526 89.7825 48.2333 89.8141 48.2235 89.856C48.2137 89.8979 48.1944 89.9295 48.1806 89.9262C48.1669 89.9229 48.1509 89.9405 48.1451 89.9653C48.1392 89.9902 48.1081 90.0216 48.076 90.0351C48.0438 90.0486 48.0127 90.0799 48.0069 90.1048C48.001 90.1296 47.985 90.1473 47.9713 90.1439C47.9576 90.1406 47.941 90.1608 47.9344 90.1887C47.9278 90.2166 47.9112 90.2368 47.8975 90.2335C47.8838 90.2301 47.8678 90.2478 47.862 90.2726C47.8561 90.2975 47.825 90.3288 47.7929 90.3423C47.7607 90.3558 47.7296 90.3872 47.7237 90.4121C47.7179 90.4369 47.7019 90.4545 47.6882 90.4512C47.6745 90.4479 47.6584 90.4655 47.6526 90.4904C47.6468 90.5152 47.6157 90.5466 47.5835 90.5601C47.5513 90.5736 47.5202 90.605 47.5144 90.6298C47.5085 90.6547 47.4925 90.6723 47.4788 90.669C47.4651 90.6657 47.4491 90.6833 47.4433 90.7081C47.4374 90.733 47.4063 90.7644 47.3741 90.7779C47.342 90.7913 47.3119 90.8181 47.3074 90.8374C47.3029 90.8566 47.258 90.8963 47.2076 90.9254C47.1573 90.9546 47.1124 90.9943 47.1078 91.0135C47.1033 91.0327 47.0733 91.0595 47.0411 91.073C47.009 91.0865 46.9789 91.1133 46.9744 91.1326C46.9699 91.1518 46.925 91.1915 46.8746 91.2206C46.8243 91.2498 46.78 91.2869 46.7762 91.303C46.7724 91.3191 46.6861 91.3833 46.5845 91.4457C46.4828 91.508 46.3968 91.5712 46.3933 91.5861C46.387 91.6126 45.8128 91.9836 45.7875 91.9775C45.7805 91.9758 45.7962 91.8829 45.8225 91.7712C45.8503 91.6526 45.8806 91.5705 45.8952 91.574C45.9104 91.5777 45.948 91.4615 45.9917 91.2752C46.0355 91.089 46.0731 90.9728 46.0883 90.9765C46.1038 90.9802 46.1471 90.8386 46.2028 90.6015C46.2585 90.3644 46.3017 90.2227 46.3173 90.2265C46.3336 90.2305 46.4476 89.7838 46.6466 88.9371C46.8455 88.0904 46.9424 87.6395 46.926 87.6356C46.9108 87.6319 46.9288 87.5117 46.9722 87.3268C47.0235 87.1085 47.0355 87.0185 47.0152 87.0037C46.9939 86.9883 46.9979 86.9783 47.0313 86.9631C47.0648 86.9478 47.0687 86.9379 47.0475 86.9224C47.0283 86.9085 47.0344 86.838 47.0666 86.7009C47.0941 86.5838 47.1034 86.4973 47.0889 86.4938C47.0746 86.4903 47.0818 86.4115 47.1057 86.3099C47.1296 86.2083 47.1368 86.1295 47.1225 86.1261C47.1087 86.1227 47.1135 86.0523 47.1334 85.9676C47.1533 85.883 47.1581 85.8125 47.1443 85.8092C47.1306 85.8058 47.1328 85.746 47.1492 85.6761C47.1656 85.6063 47.1678 85.5464 47.1541 85.5431C47.1403 85.5397 47.1425 85.4799 47.159 85.41C47.1754 85.3402 47.1776 85.2803 47.1639 85.277C47.1501 85.2736 47.1497 85.2252 47.1628 85.1693C47.1759 85.1134 47.1754 85.065 47.1617 85.0617C47.148 85.0584 47.1448 85.0213 47.1547 84.9794C47.1645 84.9375 47.1614 84.9005 47.1476 84.8972C47.1339 84.8939 47.1334 84.8454 47.1466 84.7895C47.1597 84.7337 47.1592 84.6852 47.1455 84.6819C47.1318 84.6786 47.1313 84.6301 47.1444 84.5742C47.1576 84.5184 47.1571 84.4699 47.1434 84.4666C47.1296 84.4633 47.1292 84.4148 47.1423 84.3589C47.1554 84.3031 47.1549 84.2546 47.1412 84.2513C47.1275 84.248 47.1232 84.2159 47.1316 84.1799C47.1512 84.0966 47.1104 84.0291 47.0286 84.0092C46.9933 84.0007 46.9671 83.9823 46.9704 83.9683C46.9737 83.9543 46.9203 83.9293 46.8517 83.9127C46.7831 83.8961 46.7296 83.871 46.7329 83.8571C46.7362 83.8431 46.6827 83.8181 46.6141 83.8015C46.5455 83.7848 46.4921 83.7598 46.4954 83.7458C46.4987 83.7317 46.4348 83.7043 46.3517 83.6842C46.2685 83.664 46.2047 83.6366 46.208 83.6225C46.2114 83.608 46.1391 83.579 46.0393 83.5548C45.9396 83.5306 45.8673 83.5016 45.8707 83.4871C45.8743 83.4716 45.7602 83.4335 45.5773 83.3892C45.3944 83.3449 45.2803 83.3068 45.2839 83.2913C45.2878 83.2748 44.9906 83.1934 44.4418 83.0604C43.893 82.9275 43.5915 82.8639 43.5877 82.8804C43.5838 82.8966 43.3489 82.8494 42.9331 82.7486C42.3012 82.5956 42.2842 82.5928 42.2726 82.6423C42.266 82.6703 42.2719 82.6959 42.2856 82.6992C42.3006 82.7028 42.2867 82.8068 42.2509 82.9592C42.2151 83.1116 42.2012 83.2157 42.2161 83.2193C42.2323 83.2232 42.1675 83.5386 42.0322 84.1144C41.8969 84.6901 41.8145 85.0013 41.7983 84.9974C41.7834 84.9937 41.7495 85.0929 41.7137 85.2453C41.6779 85.3977 41.644 85.4969 41.6291 85.4933C41.6148 85.4899 41.5862 85.5635 41.5624 85.6651C41.5385 85.7667 41.5099 85.8403 41.4956 85.8368C41.4818 85.8335 41.4548 85.8985 41.4349 85.9832C41.415 86.0679 41.388 86.1329 41.3741 86.1296C41.3604 86.1262 41.3357 86.1807 41.3193 86.2505C41.3029 86.3204 41.2783 86.3748 41.2645 86.3715C41.2508 86.3682 41.2262 86.4226 41.2098 86.4925C41.1933 86.5623 41.1687 86.6167 41.155 86.6134C41.1412 86.6101 41.1166 86.6645 41.1002 86.7344C41.0838 86.8042 41.0591 86.8587 41.0454 86.8553C41.0317 86.852 41.0097 86.895 40.9966 86.9509C40.9834 87.0068 40.9615 87.0498 40.9478 87.0465C40.934 87.0431 40.9147 87.0747 40.9049 87.1166C40.8951 87.1585 40.8758 87.1901 40.8621 87.1868C40.8483 87.1835 40.8264 87.2265 40.8132 87.2824C40.8001 87.3382 40.7781 87.3812 40.7644 87.3779C40.7507 87.3746 40.7314 87.4062 40.7216 87.4481C40.7117 87.49 40.6924 87.5216 40.6787 87.5182C40.665 87.5149 40.643 87.5579 40.6299 87.6138C40.6168 87.6697 40.5948 87.7127 40.5811 87.7094C40.5674 87.706 40.5481 87.7376 40.5382 87.7795C40.5284 87.8214 40.5091 87.853 40.4954 87.8497C40.4816 87.8464 40.4624 87.8779 40.4525 87.9198C40.4427 87.9618 40.4234 87.9933 40.4097 87.99C40.396 87.9867 40.3767 88.0182 40.3668 88.0602C40.357 88.1021 40.3377 88.1336 40.324 88.1303C40.3102 88.127 40.291 88.1586 40.2811 88.2005C40.2713 88.2424 40.252 88.274 40.2383 88.2706C40.2245 88.2673 40.2053 88.2989 40.1954 88.3408C40.1856 88.3827 40.1663 88.4143 40.1526 88.411C40.1388 88.4076 40.1222 88.4278 40.1157 88.4557C40.1091 88.4837 40.0925 88.5038 40.0788 88.5005C40.0651 88.4972 40.0458 88.5287 40.0359 88.5706C40.0261 88.6126 40.0068 88.6441 39.9931 88.6408C39.9794 88.6375 39.9628 88.6576 39.9562 88.6856C39.9497 88.7135 39.9331 88.7336 39.9193 88.7303C39.9056 88.727 39.889 88.7471 39.8825 88.7751C39.8759 88.803 39.8593 88.8232 39.8456 88.8198C39.8319 88.8165 39.8126 88.8481 39.8027 88.89C39.7929 88.9319 39.7736 88.9635 39.7599 88.9602C39.7461 88.9568 39.7296 88.977 39.723 89.0049C39.7164 89.0329 39.6998 89.053 39.6861 89.0497C39.6724 89.0464 39.6558 89.0665 39.6492 89.0944C39.6427 89.1224 39.6261 89.1425 39.6123 89.1392C39.5986 89.1359 39.582 89.156 39.5755 89.184C39.5689 89.2119 39.5523 89.232 39.5386 89.2287C39.5249 89.2254 39.5083 89.2455 39.5017 89.2735C39.4951 89.3014 39.4785 89.3216 39.4648 89.3182C39.4511 89.3149 39.4351 89.3325 39.4293 89.3574C39.4234 89.3822 39.3923 89.4136 39.3601 89.4271C39.328 89.4406 39.2969 89.472 39.291 89.4968C39.2852 89.5217 39.2692 89.5393 39.2555 89.536C39.2417 89.5327 39.2257 89.5503 39.2199 89.5751C39.2141 89.6 39.183 89.6314 39.1508 89.6449C39.1186 89.6584 39.0881 89.6872 39.083 89.709C39.0779 89.7308 39.0474 89.7596 39.0152 89.7731C38.983 89.7866 38.9519 89.818 38.9461 89.8428C38.9402 89.8677 38.9242 89.8853 38.9105 89.882C38.8968 89.8787 38.8808 89.8963 38.8749 89.9211C38.8691 89.946 38.838 89.9774 38.8058 89.9909C38.7737 90.0044 38.7431 90.0332 38.738 90.055C38.7329 90.0767 38.7024 90.1056 38.6702 90.1191C38.6381 90.1326 38.607 90.164 38.6011 90.1888C38.5953 90.2137 38.5793 90.2313 38.5656 90.228C38.5518 90.2246 38.5364 90.2399 38.5312 90.2618C38.5222 90.3003 38.4486 90.3607 38.4193 90.3536C38.4114 90.3517 38.4131 90.3159 38.4229 90.274C38.4328 90.232 38.4521 90.2005 38.4658 90.2038C38.4806 90.2074 38.5126 90.1167 38.5444 89.9812C38.5763 89.8458 38.6083 89.7551 38.6231 89.7587C38.6391 89.7625 38.7077 89.5107 38.8152 89.0535C38.9226 88.5963 38.9734 88.3401 38.9573 88.3362C38.9424 88.3326 38.9563 88.2286 38.9921 88.0761C39.0279 87.9237 39.0418 87.8197 39.0268 87.8161C39.0123 87.8126 39.0218 87.7254 39.0496 87.6068C39.0775 87.4883 39.087 87.4011 39.0724 87.3976C39.0586 87.3942 39.0634 87.3238 39.0833 87.2391C39.1032 87.1545 39.108 87.084 39.0942 87.0807C39.0804 87.0774 39.0826 87.0175 39.099 86.9476C39.1155 86.8778 39.1177 86.8179 39.1039 86.8146C39.0902 86.8113 39.0897 86.7628 39.1029 86.7069C39.116 86.6511 39.1155 86.6026 39.1018 86.5993C39.0881 86.596 39.0903 86.5361 39.1067 86.4662C39.1231 86.3964 39.1253 86.3365 39.1116 86.3332C39.0979 86.3299 39.1001 86.27 39.1165 86.2001C39.1329 86.1303 39.1351 86.0704 39.1214 86.0671C39.1077 86.0638 39.1072 86.0153 39.1203 85.9594C39.1335 85.9036 39.133 85.8551 39.1192 85.8518C39.1055 85.8485 39.1077 85.7886 39.1241 85.7188C39.1406 85.6489 39.1428 85.589 39.129 85.5857C39.1153 85.5824 39.1175 85.5225 39.1339 85.4527C39.1504 85.3828 39.1526 85.3229 39.1388 85.3196C39.1251 85.3163 39.1246 85.2678 39.1378 85.212C39.1509 85.1561 39.1504 85.1076 39.1367 85.1043C39.123 85.101 39.1225 85.0525 39.1356 84.9967C39.1488 84.9408 39.1483 84.8923 39.1346 84.889C39.1208 84.8857 39.1204 84.8373 39.1335 84.7814C39.1466 84.7255 39.1461 84.677 39.1324 84.6737C39.1187 84.6704 39.1155 84.6334 39.1254 84.5915C39.1352 84.5496 39.132 84.5126 39.1183 84.5092C39.1046 84.5059 39.1041 84.4575 39.1173 84.4016C39.1304 84.3457 39.1299 84.2973 39.1162 84.2939C39.1025 84.2906 39.0993 84.2536 39.1091 84.2117C39.119 84.1698 39.1158 84.1328 39.1021 84.1294C39.0884 84.1261 39.0852 84.0891 39.0951 84.0472C39.1049 84.0053 39.1017 83.9683 39.088 83.9649C39.0743 83.9616 39.0711 83.9246 39.081 83.8827C39.0908 83.8408 39.0877 83.8038 39.0739 83.8005C39.0602 83.7971 39.0571 83.7601 39.0669 83.7182C39.0768 83.6763 39.0736 83.6393 39.0599 83.636C39.0461 83.6326 39.043 83.5956 39.0528 83.5537C39.0627 83.5118 39.0595 83.4748 39.0458 83.4715C39.0321 83.4681 39.0262 83.4426 39.0328 83.4146C39.0393 83.3867 39.0335 83.3611 39.0198 83.3578C39.0061 83.3545 39.0029 83.3174 39.0127 83.2755C39.0226 83.2336 39.0194 83.1966 39.0057 83.1933C38.992 83.19 38.9861 83.1644 38.9927 83.1364C38.9993 83.1085 38.9934 83.0829 38.9797 83.0796C38.966 83.0763 38.9628 83.0393 38.9726 82.9973C38.9825 82.9554 38.9793 82.9184 38.9656 82.9151C38.9519 82.9118 38.946 82.8862 38.9526 82.8583C38.9592 82.8303 38.9533 82.8047 38.9396 82.8014C38.9259 82.7981 38.9215 82.7663 38.9298 82.7307C38.9565 82.6173 38.814 82.444 38.7588 82.5227C38.7436 82.5444 38.7338 82.5404 38.7189 82.5063C38.704 82.4723 38.6942 82.4683 38.679 82.49C38.6639 82.5115 38.5411 82.4901 38.187 82.4043C37.889 82.3321 37.7129 82.2994 37.7092 82.3154C37.7055 82.3308 37.5951 82.3146 37.4288 82.2743C37.2625 82.2341 37.152 82.2179 37.1484 82.2333C37.1449 82.2483 37.051 82.2365 36.9179 82.2043C36.7849 82.1721 36.691 82.1602 36.6875 82.1753C36.6839 82.1904 36.59 82.1785 36.457 82.1463C36.324 82.1141 36.2301 82.1023 36.2265 82.1173C36.223 82.1321 36.1374 82.1226 36.021 82.0944C35.9046 82.0662 35.8189 82.0566 35.8155 82.0714C35.812 82.086 35.7347 82.0787 35.6349 82.0545C35.5351 82.0304 35.4577 82.0231 35.4543 82.0376C35.4509 82.052 35.377 82.0458 35.2844 82.0233C35.1756 81.997 35.1056 81.9929 35.0763 82.0113C35.0256 82.043 35.0013 82.1158 35.0383 82.1248C35.052 82.1281 35.0579 82.1537 35.0513 82.1817C35.0448 82.2096 35.0506 82.2352 35.0643 82.2385C35.0781 82.2418 35.0839 82.2674 35.0774 82.2953C35.0708 82.3233 35.0766 82.3489 35.0904 82.3522C35.1041 82.3555 35.1072 82.3925 35.0974 82.4344C35.0876 82.4764 35.0907 82.5134 35.1044 82.5167C35.1182 82.52 35.1213 82.557 35.1115 82.5989C35.1016 82.6408 35.1048 82.6779 35.1185 82.6812C35.1322 82.6845 35.1354 82.7215 35.1256 82.7634C35.1157 82.8053 35.1189 82.8423 35.1326 82.8457C35.1463 82.849 35.1468 82.8974 35.1337 82.9533C35.1205 83.0092 35.121 83.0576 35.1347 83.061C35.1485 83.0643 35.1489 83.1127 35.1358 83.1686C35.1227 83.2245 35.1232 83.2729 35.1369 83.2763C35.1506 83.2796 35.1511 83.328 35.138 83.3839C35.1248 83.4398 35.1253 83.4882 35.139 83.4916C35.1529 83.4949 35.1481 83.5653 35.1282 83.65C35.1083 83.7347 35.1034 83.8051 35.1173 83.8085C35.1315 83.8119 35.1243 83.8907 35.1005 83.9923C35.0766 84.0939 35.0694 84.1727 35.0836 84.1762C35.0987 84.1798 35.0827 84.2923 35.0429 84.4616C35.0031 84.631 34.9871 84.7434 35.0022 84.7471C35.0184 84.751 34.9416 85.1172 34.7824 85.7946C34.6233 86.4719 34.529 86.8339 34.5128 86.83C34.4978 86.8263 34.464 86.9255 34.4282 87.0779C34.3924 87.2303 34.3585 87.3295 34.3435 87.3259C34.3297 87.3225 34.3027 87.3876 34.2828 87.4723C34.2629 87.5569 34.2359 87.622 34.222 87.6186C34.2082 87.6153 34.1812 87.6803 34.1613 87.765C34.1414 87.8497 34.1144 87.9147 34.1005 87.9114C34.0866 87.908 34.0597 87.9731 34.0398 88.0577C34.0199 88.1424 33.9929 88.2074 33.979 88.2041C33.9648 88.2006 33.9362 88.2742 33.9123 88.3759C33.8884 88.4775 33.8598 88.5511 33.8456 88.5476C33.8308 88.544 33.7987 88.6347 33.7669 88.7702C33.7351 88.9057 33.703 88.9963 33.6882 88.9928C33.6745 88.9894 33.6499 89.0439 33.6334 89.1137C33.617 89.1836 33.5924 89.238 33.5787 89.2347C33.5649 89.2314 33.5618 89.1943 33.5716 89.1524C33.5815 89.1105 33.5783 89.0735 33.5646 89.0702C33.5509 89.0669 33.5531 89.007 33.5695 88.9371C33.5859 88.8673 33.5881 88.8074 33.5744 88.8041C33.5606 88.8008 33.5602 88.7523 33.5733 88.6964C33.5864 88.6406 33.5859 88.5921 33.5722 88.5888C33.5585 88.5855 33.558 88.537 33.5712 88.4811C33.5843 88.4253 33.5838 88.3768 33.5701 88.3735C33.5564 88.3702 33.5532 88.3332 33.563 88.2913C33.5729 88.2493 33.5697 88.2123 33.556 88.209C33.5423 88.2057 33.5418 88.1572 33.5549 88.1014C33.5681 88.0455 33.5676 87.997 33.5539 87.9937C33.5401 87.9904 33.537 87.9534 33.5468 87.9115C33.5567 87.8696 33.5535 87.8325 33.5398 87.8292C33.5261 87.8259 33.5256 87.7775 33.5387 87.7216C33.5518 87.6657 33.5514 87.6172 33.5376 87.6139C33.5239 87.6106 33.5234 87.5622 33.5366 87.5063C33.5497 87.4504 33.5492 87.402 33.5355 87.3986C33.5218 87.3953 33.5186 87.3583 33.5285 87.3164C33.5383 87.2745 33.5351 87.2375 33.5214 87.2341C33.5077 87.2308 33.5018 87.2052 33.5084 87.1773C33.515 87.1493 33.5091 87.1238 33.4954 87.1204C33.4817 87.1171 33.4785 87.0801 33.4884 87.0382C33.4982 86.9963 33.495 86.9593 33.4813 86.956C33.4676 86.9526 33.4644 86.9156 33.4743 86.8737C33.4841 86.8318 33.481 86.7948 33.4672 86.7915C33.4535 86.7881 33.4504 86.7511 33.4602 86.7092C33.47 86.6673 33.4669 86.6303 33.4532 86.627C33.4394 86.6236 33.4336 86.5981 33.4402 86.5701C33.4467 86.5422 33.4409 86.5166 33.4271 86.5133C33.4134 86.51 33.4103 86.4729 33.4201 86.431C33.43 86.3891 33.4268 86.3521 33.4131 86.3488C33.3993 86.3455 33.3962 86.3084 33.406 86.2665C33.4159 86.2246 33.4127 86.1876 33.399 86.1843C33.3853 86.181 33.3794 86.1554 33.386 86.1274C33.3925 86.0995 33.3867 86.0739 33.373 86.0706C33.3592 86.0673 33.3561 86.0303 33.3659 85.9884C33.3758 85.9464 33.3726 85.9094 33.3589 85.9061C33.3452 85.9028 33.3393 85.8772 33.3459 85.8493C33.3524 85.8213 33.3466 85.7957 33.3329 85.7924C33.3192 85.7891 33.3133 85.7635 33.3199 85.7356C33.3264 85.7076 33.3206 85.682 33.3069 85.6787C33.2931 85.6754 33.2873 85.6498 33.2938 85.6219C33.3004 85.5939 33.2946 85.5684 33.2808 85.565C33.2671 85.5617 33.2613 85.5361 33.2678 85.5082C33.2744 85.4802 33.2685 85.4547 33.2548 85.4513C33.2411 85.448 33.2379 85.411 33.2478 85.3691C33.2576 85.3272 33.2545 85.2902 33.2407 85.2869C33.227 85.2835 33.2212 85.2579 33.2277 85.23C33.2343 85.2021 33.2284 85.1765 33.2147 85.1732C33.201 85.1698 33.1952 85.1443 33.2017 85.1163C33.2083 85.0884 33.2024 85.0628 33.1887 85.0595C33.175 85.0561 33.1691 85.0306 33.1757 85.0026C33.1823 84.9747 33.1764 84.9491 33.1627 84.9458C33.149 84.9425 33.1431 84.9169 33.1497 84.8889C33.1562 84.861 33.1504 84.8354 33.1367 84.8321C33.123 84.8288 33.1171 84.8032 33.1237 84.7752C33.1302 84.7473 33.1244 84.7217 33.1107 84.7184C33.0969 84.7151 33.0911 84.6895 33.0977 84.6616C33.1042 84.6336 33.0984 84.608 33.0846 84.6047C33.0709 84.6014 33.0651 84.5758 33.0716 84.5479C33.0782 84.5199 33.0723 84.4943 33.0586 84.491C33.0449 84.4877 33.0385 84.4646 33.0443 84.4398C33.0501 84.4149 33.0363 84.3727 33.0136 84.3459C32.9909 84.3191 32.9771 84.2768 32.983 84.252C32.9888 84.2271 32.9824 84.2041 32.9686 84.2007C32.9549 84.1974 32.9491 84.1718 32.9556 84.1439C32.9622 84.116 32.9563 84.0904 32.9426 84.0871C32.9289 84.0837 32.9225 84.0607 32.9283 84.0358C32.9341 84.011 32.9203 83.9687 32.8976 83.9419C32.8749 83.9151 32.8605 83.8754 32.8656 83.8536C32.8708 83.8319 32.8564 83.7921 32.8337 83.7653C32.811 83.7386 32.7961 83.7009 32.8006 83.6816C32.8051 83.6624 32.7827 83.6064 32.7507 83.5573C32.7188 83.5082 32.6957 83.4547 32.6995 83.4385C32.7034 83.4222 32.6634 83.3396 32.6108 83.255C32.5582 83.1703 32.5183 83.0877 32.5221 83.0715C32.5259 83.0552 32.5029 83.0017 32.471 82.9526C32.439 82.9035 32.4161 82.8496 32.42 82.8329C32.4239 82.8161 32.401 82.7623 32.369 82.7131C32.3371 82.664 32.3141 82.6102 32.3181 82.5934C32.322 82.5767 32.2991 82.5228 32.2671 82.4737C32.2351 82.4246 32.2121 82.3713 32.2158 82.3553C32.2259 82.3125 32.1357 82.1734 32.0909 82.1625C32.0697 82.1574 32.0497 82.1646 32.0464 82.1786C32.0431 82.1926 32.018 82.1986 31.9906 82.1919C31.9631 82.1853 31.938 82.1913 31.9347 82.2052C31.9314 82.2192 31.8951 82.2225 31.8539 82.2125C31.8127 82.2025 31.7764 82.2058 31.7731 82.2198C31.7698 82.2337 31.7447 82.2397 31.7172 82.2331C31.6898 82.2264 31.6647 82.2324 31.6614 82.2464C31.6581 82.2604 31.633 82.2664 31.6055 82.2597C31.5781 82.2531 31.5529 82.2591 31.5497 82.273C31.5464 82.287 31.5212 82.293 31.4938 82.2863C31.4664 82.2797 31.4412 82.2857 31.4379 82.2997C31.4347 82.3136 31.4095 82.3196 31.3821 82.313C31.3547 82.3063 31.3295 82.3123 31.3262 82.3263C31.3229 82.3403 31.2866 82.3435 31.2454 82.3336C31.2043 82.3236 31.1679 82.3269 31.1646 82.3408C31.1613 82.3548 31.1362 82.3608 31.1088 82.3542C31.0813 82.3475 31.0562 82.3535 31.0529 82.3675C31.0496 82.3814 31.0245 82.3874 30.997 82.3808C30.9696 82.3741 30.9445 82.3801 30.9412 82.3941C30.9379 82.4081 30.9128 82.4141 30.8853 82.4074C30.8579 82.4008 30.8328 82.4068 30.8295 82.4207C30.8262 82.4347 30.8011 82.4407 30.7736 82.434C30.7462 82.4274 30.721 82.4334 30.7178 82.4474C30.7145 82.4613 30.6781 82.4646 30.6369 82.4546C30.5958 82.4447 30.5594 82.4479 30.5561 82.4619C30.5529 82.4759 30.5277 82.4819 30.5003 82.4752C30.4728 82.4686 30.4477 82.4746 30.4444 82.4885C30.4411 82.5025 30.416 82.5085 30.3886 82.5019C30.3611 82.4952 30.336 82.5012 30.3327 82.5152C30.3294 82.5291 30.3068 82.5357 30.2824 82.5298C30.2579 82.5239 30.2164 82.538 30.1901 82.5612C30.1637 82.5843 30.1222 82.5984 30.0978 82.5925C30.0734 82.5866 30.0507 82.5932 30.0474 82.6071C30.0442 82.6211 30.019 82.6271 29.9916 82.6205C29.9641 82.6138 29.939 82.6198 29.9357 82.6338C29.9324 82.6477 29.8961 82.651 29.8549 82.641C29.8138 82.6311 29.7774 82.6344 29.7741 82.6483C29.7708 82.6623 29.7457 82.6683 29.7183 82.6616C29.6908 82.655 29.6657 82.661 29.6624 82.675C29.6591 82.6889 29.6364 82.6955 29.6121 82.6896C29.5876 82.6837 29.5461 82.6978 29.5198 82.7209C29.4934 82.7441 29.4519 82.7582 29.4275 82.7523C29.4031 82.7464 29.3804 82.753 29.3771 82.7669C29.3739 82.7809 29.3487 82.7869 29.3213 82.7802C29.2938 82.7736 29.2687 82.7796 29.2654 82.7936C29.2621 82.8075 29.237 82.8135 29.2096 82.8069C29.1821 82.8002 29.157 82.8062 29.1537 82.8202C29.1504 82.8342 29.1277 82.8408 29.1034 82.8348C29.0789 82.8289 29.0374 82.843 29.0111 82.8662C28.9847 82.8893 28.9432 82.9034 28.9188 82.8975C28.8944 82.8916 28.8717 82.8982 28.8684 82.9122C28.8652 82.9261 28.84 82.9321 28.8126 82.9255C28.7851 82.9188 28.76 82.9248 28.7567 82.9388C28.7534 82.9528 28.7283 82.9588 28.7009 82.9521C28.6734 82.9455 28.6483 82.9515 28.645 82.9654C28.6417 82.9794 28.6191 82.986 28.5947 82.9801C28.5702 82.9742 28.5287 82.9883 28.5024 83.0114C28.476 83.0346 28.4345 83.0487 28.4101 83.0428C28.3857 83.0368 28.363 83.0434 28.3597 83.0574C28.3565 83.0714 28.3338 83.078 28.3094 83.0721C28.285 83.0661 28.2435 83.0802 28.2171 83.1034C28.1908 83.1265 28.1492 83.1407 28.1248 83.1347C28.1004 83.1288 28.0778 83.1354 28.0745 83.1494C28.0712 83.1634 28.0485 83.1699 28.0241 83.164C27.9997 83.1581 27.9582 83.1722 27.9318 83.1954C27.9055 83.2185 27.8664 83.2332 27.8451 83.228C27.8237 83.2229 27.7846 83.2376 27.7583 83.2607C27.732 83.2839 27.6929 83.2986 27.6715 83.2934C27.6501 83.2882 27.6111 83.3029 27.5848 83.3261C27.5584 83.3492 27.5169 83.3633 27.4925 83.3574C27.4681 83.3515 27.4454 83.3581 27.4421 83.3721C27.4388 83.386 27.4162 83.3926 27.3918 83.3867C27.3674 83.3808 27.3258 83.3949 27.2995 83.418C27.2731 83.4412 27.2361 83.4564 27.2172 83.4518C27.1983 83.4472 27.1433 83.4702 27.095 83.5028C27.0467 83.5354 26.9917 83.5583 26.9729 83.5537C26.9539 83.5491 26.9169 83.5643 26.8906 83.5875C26.8642 83.6106 26.8252 83.6253 26.8038 83.6201C26.7824 83.615 26.7434 83.6297 26.717 83.6528C26.6907 83.676 26.6537 83.6911 26.6347 83.6866C26.6159 83.682 26.5609 83.7049 26.5126 83.7375C26.4643 83.7701 26.4115 83.7936 26.3954 83.7897C26.3792 83.7858 26.3121 83.8178 26.2463 83.8609C26.1804 83.904 26.1135 83.9362 26.0977 83.9323C26.0818 83.9285 26.0149 83.9606 25.9491 84.0037C25.8832 84.0468 25.8165 84.079 25.8008 84.0752C25.7851 84.0714 25.7042 84.1122 25.621 84.1658C25.5377 84.2195 25.4576 84.2605 25.4429 84.257C25.4082 84.2485 24.0274 85.113 24.0191 85.1483C24.0156 85.1632 23.9296 85.2263 23.828 85.2886C23.7263 85.351 23.6401 85.4149 23.6364 85.4308C23.6327 85.4466 23.5744 85.4926 23.5069 85.533C23.4394 85.5734 23.381 85.6199 23.3772 85.6364C23.3733 85.6528 23.3289 85.6901 23.2786 85.7193C23.2282 85.7485 23.1838 85.7861 23.1799 85.8028C23.1759 85.8195 23.1315 85.8571 23.0811 85.8863C23.0308 85.9154 22.9859 85.9551 22.9814 85.9743C22.9768 85.9936 22.9468 86.0204 22.9146 86.0339C22.8825 86.0474 22.8514 86.0787 22.8455 86.1036C22.8397 86.1284 22.8237 86.1461 22.81 86.1427C22.7962 86.1394 22.7802 86.157 22.7744 86.1819C22.7686 86.2068 22.7375 86.2381 22.7053 86.2516C22.6731 86.2651 22.6426 86.294 22.6375 86.3157C22.6324 86.3375 22.6019 86.3664 22.5697 86.3799C22.5375 86.3934 22.5064 86.4247 22.5006 86.4496C22.4947 86.4744 22.4787 86.4921 22.465 86.4887C22.4513 86.4854 22.4347 86.5056 22.4281 86.5335C22.4216 86.5614 22.405 86.5816 22.3912 86.5783C22.3775 86.5749 22.3609 86.5951 22.3544 86.623C22.3478 86.651 22.3312 86.6711 22.3175 86.6678C22.3038 86.6644 22.2872 86.6846 22.2806 86.7125C22.274 86.7405 22.2574 86.7606 22.2437 86.7573C22.23 86.754 22.2134 86.7741 22.2068 86.802C22.2003 86.83 22.1837 86.8501 22.17 86.8468C22.1562 86.8435 22.1396 86.8636 22.1331 86.8916C22.1265 86.9195 22.1099 86.9397 22.0962 86.9363C22.0825 86.933 22.0659 86.9531 22.0593 86.9811C22.0527 87.009 22.0361 87.0292 22.0224 87.0258C22.0087 87.0225 21.9921 87.0427 21.9855 87.0706C21.979 87.0985 21.9624 87.1187 21.9487 87.1154C21.9349 87.112 21.9183 87.1322 21.9118 87.1601C21.9052 87.1881 21.8886 87.2082 21.8749 87.2049C21.8612 87.2016 21.8419 87.2331 21.832 87.275C21.8222 87.317 21.8029 87.3485 21.7892 87.3452C21.7755 87.3419 21.7562 87.3735 21.7463 87.4154C21.7365 87.4573 21.7172 87.4888 21.7035 87.4855C21.6898 87.4822 21.6678 87.5252 21.6547 87.5811C21.6415 87.637 21.6196 87.68 21.6059 87.6766C21.5921 87.6733 21.5729 87.7049 21.563 87.7468C21.5532 87.7887 21.5339 87.8203 21.5202 87.817C21.5064 87.8136 21.4818 87.8681 21.4654 87.9379C21.449 88.0078 21.4243 88.0622 21.4106 88.0589C21.3969 88.0556 21.3722 88.11 21.3558 88.1799C21.3394 88.2497 21.3147 88.3041 21.301 88.3008C21.2852 88.297 21.2323 88.481 21.1567 88.8028C21.0811 89.1246 21.0465 89.313 21.0623 89.3169C21.0765 89.3203 21.0693 89.3991 21.0454 89.5007C21.0216 89.6023 21.0144 89.6811 21.0286 89.6846C21.0423 89.6879 21.0401 89.7478 21.0237 89.8176C21.0073 89.8875 21.0051 89.9473 21.0188 89.9507C21.0325 89.954 21.0303 90.0139 21.0139 90.0837C20.9975 90.1536 20.9953 90.2134 21.009 90.2168C21.0227 90.2201 21.0232 90.2685 21.0101 90.3244C20.9969 90.3803 20.9974 90.4287 21.0112 90.4321C21.0249 90.4354 21.028 90.4724 21.0182 90.5143C21.0083 90.5562 21.0115 90.5932 21.0252 90.5966C21.039 90.5999 21.0421 90.6369 21.0323 90.6788C21.0224 90.7207 21.0256 90.7577 21.0393 90.761C21.053 90.7644 21.0589 90.7899 21.0523 90.8179C21.0458 90.8458 21.0516 90.8714 21.0653 90.8747C21.079 90.8781 21.0822 90.9151 21.0724 90.957C21.0625 90.9989 21.0657 91.0359 21.0794 91.0392C21.0931 91.0426 21.099 91.0681 21.0924 91.0961C21.0858 91.124 21.0917 91.1496 21.1054 91.1529C21.1191 91.1562 21.1223 91.1933 21.1125 91.2352C21.1026 91.2771 21.1058 91.3141 21.1195 91.3174C21.1332 91.3207 21.1391 91.3463 21.1325 91.3743C21.1259 91.4022 21.1318 91.4278 21.1455 91.4311C21.1592 91.4344 21.1651 91.46 21.1585 91.4879C21.152 91.5159 21.1578 91.5415 21.1715 91.5448C21.1853 91.5481 21.1911 91.5737 21.1845 91.6016C21.178 91.6296 21.1838 91.6552 21.1976 91.6585C21.2113 91.6618 21.2171 91.6874 21.2106 91.7153C21.204 91.7433 21.2098 91.7689 21.2236 91.7722C21.2373 91.7755 21.2431 91.8011 21.2366 91.829C21.23 91.857 21.2359 91.8825 21.2496 91.8859C21.2633 91.8892 21.2697 91.9123 21.2639 91.9371C21.2581 91.962 21.2719 92.0042 21.2946 92.031C21.3173 92.0578 21.3311 92.1 21.3252 92.1249C21.3194 92.1497 21.3259 92.1728 21.3396 92.1761C21.3533 92.1795 21.3597 92.2025 21.3539 92.2274C21.3481 92.2522 21.3619 92.2945 21.3846 92.3213C21.4073 92.3481 21.4217 92.3878 21.4166 92.4096C21.4114 92.4313 21.4258 92.4711 21.4485 92.4978C21.4712 92.5246 21.4856 92.5644 21.4805 92.5861C21.4754 92.6079 21.4898 92.6476 21.5125 92.6744C21.5352 92.7012 21.5501 92.7386 21.5457 92.7576C21.5412 92.7766 21.5722 92.8469 21.6144 92.9139C21.6567 92.9809 21.6882 93.0489 21.6844 93.0651C21.6806 93.0812 21.712 93.1493 21.7543 93.2162C21.7966 93.2832 21.8282 93.3504 21.8247 93.3656C21.8162 93.4016 22.5118 94.5542 22.5472 94.5627C22.5621 94.5663 22.6066 94.6255 22.6462 94.6941C22.6858 94.7628 22.7314 94.8222 22.7476 94.8261C22.7637 94.83 22.8004 94.8751 22.8289 94.9263C22.8575 94.9775 22.8944 95.0227 22.9108 95.0267C22.9273 95.0307 22.9641 95.0758 22.9927 95.1271C23.0213 95.1783 23.0602 95.224 23.0791 95.2285C23.098 95.2331 23.1243 95.2636 23.1375 95.2964C23.1507 95.3291 23.179 95.3601 23.2004 95.3653C23.2217 95.3705 23.25 95.4015 23.2633 95.4342C23.2765 95.467 23.3048 95.498 23.3262 95.5032C23.3475 95.5083 23.3758 95.5394 23.3891 95.5721C23.4023 95.6048 23.4331 95.6364 23.4575 95.6424C23.4819 95.6483 23.4992 95.6645 23.4959 95.6785C23.4926 95.6925 23.5124 95.7094 23.5398 95.716C23.5672 95.7226 23.587 95.7395 23.5837 95.7535C23.5804 95.7675 23.5977 95.7837 23.6221 95.7896C23.6466 95.7956 23.6773 95.8272 23.6905 95.8599C23.7038 95.8926 23.7345 95.9243 23.759 95.9302C23.7834 95.9361 23.8007 95.9524 23.7974 95.9663C23.7941 95.9803 23.8139 95.9972 23.8413 96.0038C23.8687 96.0105 23.8885 96.0273 23.8852 96.0413C23.8819 96.0553 23.9017 96.0721 23.9291 96.0788C23.9566 96.0854 23.9763 96.1023 23.9731 96.1163C23.9698 96.1302 23.9895 96.1471 24.017 96.1538C24.0444 96.1604 24.0642 96.1773 24.0609 96.1912C24.0576 96.2052 24.0774 96.2221 24.1048 96.2287C24.1323 96.2354 24.152 96.2522 24.1487 96.2662C24.1455 96.2802 24.1652 96.2971 24.1927 96.3037C24.2201 96.3104 24.2399 96.3272 24.2366 96.3412C24.2333 96.3552 24.2531 96.372 24.2805 96.3787C24.308 96.3853 24.3277 96.4022 24.3244 96.4162C24.3212 96.4301 24.3409 96.447 24.3684 96.4537C24.3958 96.4603 24.4156 96.4772 24.4123 96.4911C24.409 96.5051 24.44 96.5247 24.4811 96.5347C24.5223 96.5446 24.5533 96.5642 24.55 96.5782C24.5467 96.5922 24.5665 96.609 24.5939 96.6157C24.6214 96.6223 24.6411 96.6392 24.6379 96.6532C24.6346 96.6671 24.6543 96.684 24.6818 96.6907C24.7092 96.6973 24.729 96.7142 24.7257 96.7282C24.7224 96.7421 24.7422 96.759 24.7696 96.7656C24.7971 96.7723 24.8168 96.7892 24.8135 96.8031C24.8103 96.8171 24.8413 96.8367 24.8824 96.8467C24.9236 96.8566 24.9546 96.8762 24.9513 96.8902C24.948 96.9042 24.9678 96.921 24.9952 96.9277C25.0226 96.9343 25.0424 96.9512 25.0391 96.9652C25.0358 96.9791 25.0668 96.9987 25.108 97.0087C25.1492 97.0187 25.1801 97.0382 25.1769 97.0522C25.1736 97.0662 25.2046 97.0858 25.2457 97.0957C25.2869 97.1057 25.3179 97.1253 25.3146 97.1393C25.3113 97.1532 25.3423 97.1728 25.3835 97.1828C25.4246 97.1928 25.4556 97.2124 25.4523 97.2263C25.449 97.2403 25.48 97.2599 25.5212 97.2699C25.5624 97.2798 25.5933 97.2994 25.5901 97.3134C25.5868 97.3274 25.6178 97.347 25.6589 97.3569C25.7001 97.3669 25.7311 97.3865 25.7278 97.4005C25.7245 97.4144 25.7555 97.434 25.7967 97.444C25.8378 97.454 25.8688 97.4735 25.8655 97.4875C25.8622 97.5015 25.9045 97.5238 25.9593 97.5371C26.0142 97.5504 26.0564 97.5727 26.0532 97.5867C26.0499 97.6006 26.0809 97.6202 26.122 97.6302C26.1632 97.6402 26.1942 97.6598 26.1909 97.6737C26.1876 97.6877 26.2186 97.7073 26.2598 97.7173C26.3009 97.7272 26.3319 97.7468 26.3286 97.7608C26.3253 97.7748 26.3788 97.7998 26.4474 97.8164C26.516 97.833 26.5694 97.858 26.5661 97.872C26.5629 97.886 26.6051 97.9083 26.66 97.9216C26.7148 97.9349 26.757 97.9572 26.7538 97.9712C26.7505 97.9851 26.7927 98.0074 26.8476 98.0207C26.9025 98.034 26.9447 98.0563 26.9414 98.0703C26.9381 98.0843 26.9691 98.1039 27.0103 98.1138C27.0514 98.1238 27.0824 98.1434 27.0791 98.1574C27.0758 98.1713 27.1181 98.1936 27.1729 98.2069C27.2278 98.2202 27.27 98.2425 27.2667 98.2565C27.2635 98.2705 27.3169 98.2955 27.3855 98.3121C27.4541 98.3287 27.5075 98.3538 27.5043 98.3677C27.501 98.3817 27.5432 98.404 27.5981 98.4173C27.653 98.4306 27.6952 98.4529 27.6919 98.4669C27.6886 98.4809 27.7308 98.5032 27.7857 98.5165C27.8406 98.5298 27.8828 98.5521 27.8795 98.566C27.8762 98.58 27.9297 98.605 27.9983 98.6216C28.0669 98.6383 28.1203 98.6633 28.117 98.6773C28.1137 98.6914 28.1776 98.7188 28.2607 98.7389C28.3439 98.7591 28.4078 98.7865 28.4044 98.8006C28.4012 98.8146 28.4546 98.8396 28.5232 98.8562C28.5918 98.8728 28.6452 98.8978 28.642 98.9118C28.6386 98.9259 28.7025 98.9533 28.7857 98.9735C28.8688 98.9936 28.9327 99.021 28.9294 99.0351C28.9261 99.0491 28.9795 99.0741 29.0481 99.0907C29.1167 99.1074 29.1702 99.1324 29.1669 99.1464C29.1636 99.1605 29.2274 99.1879 29.3106 99.208C29.3937 99.2282 29.4576 99.2556 29.4543 99.2697C29.451 99.2838 29.5148 99.3112 29.598 99.3313C29.6811 99.3515 29.745 99.3789 29.7417 99.393C29.7384 99.4071 29.8022 99.4345 29.8854 99.4547C29.9685 99.4748 30.0324 99.5022 30.0291 99.5163C30.0258 99.5304 30.0897 99.5578 30.1728 99.578C30.2559 99.5981 30.3198 99.6255 30.3165 99.6396C30.313 99.6544 30.3937 99.6852 30.5101 99.7134C30.6265 99.7416 30.7072 99.7723 30.7037 99.7871C30.7001 99.8022 30.7892 99.8347 30.9222 99.8669C31.0553 99.8991 31.1443 99.9316 31.1408 99.9467C31.1373 99.9615 31.2179 99.9922 31.3344 100.02C31.4508 100.049 31.5314 100.079 31.5279 100.094C31.5244 100.109 31.6135 100.142 31.7465 100.174C31.8795 100.206 31.9686 100.239 31.965 100.254C31.9615 100.269 32.0422 100.299 32.1586 100.328C32.275 100.356 32.3557 100.386 32.3522 100.401C32.3486 100.416 32.446 100.451 32.5957 100.487C32.7454 100.523 32.8428 100.558 32.8392 100.573C32.8356 100.588 32.933 100.622 33.0827 100.659C33.2323 100.695 33.3297 100.729 33.3261 100.745C33.3225 100.76 33.4366 100.798 33.6195 100.842C33.8024 100.887 33.9165 100.925 33.9129 100.94C33.9092 100.956 34.0317 100.996 34.2312 101.044C34.4308 101.093 34.5532 101.133 34.5495 101.148C34.5458 101.164 34.6849 101.208 34.9177 101.264C35.1506 101.321 35.2897 101.365 35.286 101.38C35.2822 101.397 35.4712 101.452 35.8038 101.533C36.1364 101.613 36.3255 101.669 36.3217 101.685C36.3179 101.701 36.5153 101.759 36.8645 101.843C37.2138 101.928 37.4112 101.986 37.4074 102.002C37.4035 102.018 37.6509 102.088 38.0999 102.196C38.5489 102.305 38.7962 102.375 38.7924 102.391C38.7884 102.408 39.7426 102.648 41.6052 103.099C43.4678 103.55 44.4261 103.773 44.43 103.757C44.4338 103.74 44.6522 103.784 45.0347 103.876C45.4171 103.969 45.6355 104.012 45.6393 103.996C45.643 103.98 45.8033 104.009 46.0693 104.073C46.3354 104.138 46.4956 104.166 46.4994 104.151C46.5031 104.135 46.646 104.159 46.8775 104.215C47.1518 104.282 47.2548 104.298 47.2697 104.277C47.2848 104.255 47.2946 104.259 47.3096 104.293C47.3245 104.327 47.3343 104.331 47.3495 104.309C47.364 104.289 47.4524 104.301 47.6668 104.353C47.8484 104.397 47.9664 104.415 47.9701 104.399C47.9737 104.384 48.0925 104.402 48.2754 104.447C48.4583 104.491 48.5771 104.509 48.5807 104.494C48.5842 104.479 48.6781 104.49 48.8112 104.523C48.9442 104.555 49.0381 104.567 49.0417 104.552C49.0452 104.537 49.1391 104.548 49.2721 104.581C49.4052 104.613 49.4991 104.625 49.5026 104.61C49.5061 104.595 49.5917 104.604 49.7081 104.633C49.8246 104.661 49.9102 104.67 49.9137 104.655C49.9171 104.641 50.0028 104.65 50.1192 104.678C50.2356 104.707 50.3212 104.716 50.3247 104.701C50.3282 104.687 50.4138 104.696 50.5303 104.724C50.6467 104.752 50.7323 104.762 50.7358 104.747C50.7392 104.733 50.8166 104.74 50.9164 104.764C51.0162 104.788 51.0935 104.796 51.097 104.781C51.1004 104.766 51.1861 104.776 51.3025 104.804C51.4189 104.832 51.5045 104.842 51.508 104.827C51.5113 104.813 51.5805 104.818 51.6637 104.838C51.7468 104.858 51.816 104.863 51.8193 104.849C51.8227 104.834 51.9001 104.841 51.9999 104.866C52.0997 104.89 52.1771 104.897 52.1805 104.882C52.1838 104.868 52.2426 104.871 52.3112 104.887C52.3798 104.904 52.4386 104.906 52.4419 104.892C52.4452 104.878 52.5144 104.883 52.5975 104.903C52.6806 104.923 52.7498 104.928 52.7531 104.914C52.7564 104.9 52.8152 104.902 52.8838 104.919C52.9524 104.935 53.0112 104.937 53.0145 104.923C53.0178 104.909 53.0766 104.912 53.1452 104.928C53.2138 104.945 53.2726 104.947 53.2759 104.933C53.2792 104.919 53.338 104.921 53.4066 104.938C53.4752 104.954 53.534 104.957 53.5373 104.943C53.5406 104.929 53.5994 104.931 53.668 104.947C53.7366 104.964 53.7954 104.966 53.7987 104.952C53.802 104.938 53.8712 104.943 53.9543 104.963C54.0375 104.983 54.1067 104.988 54.11 104.974C54.1133 104.96 54.1721 104.962 54.2407 104.979C54.3093 104.995 54.3681 104.998 54.3714 104.984C54.3746 104.97 54.4222 104.969 54.4771 104.982C54.532 104.996 54.5796 104.995 54.5829 104.981C54.5861 104.967 54.645 104.969 54.7136 104.986C54.7822 105.003 54.841 105.005 54.8443 104.991C54.8475 104.977 54.8951 104.976 54.95 104.99C55.0049 105.003 55.0525 105.002 55.0558 104.988C55.059 104.974 55.1066 104.974 55.1615 104.987C55.2164 105 55.264 105 55.2673 104.986C55.2705 104.972 55.3181 104.971 55.373 104.985C55.4279 104.998 55.4755 104.997 55.4787 104.983C55.482 104.969 55.5296 104.969 55.5845 104.982C55.6394 104.995 55.687 104.995 55.6903 104.981C55.6935 104.967 55.7411 104.966 55.796 104.98C55.8509 104.993 55.8985 104.992 55.9017 104.978C55.905 104.965 55.9638 104.967 56.0324 104.983C56.101 105 56.1599 105.002 56.1631 104.988C56.1664 104.974 56.214 104.974 56.2689 104.987C56.3238 105 56.3714 105 56.3746 104.986C56.3779 104.972 56.4143 104.968 56.4554 104.978C56.4966 104.988 56.533 104.985 56.5362 104.971C56.5395 104.957 56.5871 104.957 56.642 104.97C56.6969 104.983 56.7445 104.983 56.7477 104.969C56.751 104.955 56.7874 104.951 56.8285 104.961C56.8697 104.971 56.9061 104.968 56.9094 104.954C56.9126 104.94 56.9602 104.94 57.0151 104.953C57.07 104.966 57.1176 104.966 57.1209 104.952C57.1241 104.938 57.1605 104.934 57.2017 104.944C57.2428 104.954 57.2792 104.951 57.2825 104.937C57.2857 104.923 57.3221 104.92 57.3633 104.93C57.4044 104.94 57.4408 104.937 57.4441 104.923C57.4474 104.909 57.4949 104.908 57.5498 104.921C57.6047 104.935 57.6523 104.934 57.6556 104.92C57.6588 104.906 57.6952 104.903 57.7364 104.913C57.7775 104.923 57.8139 104.92 57.8172 104.906C57.8205 104.892 57.8568 104.888 57.898 104.898C57.9391 104.908 57.9755 104.905 57.9788 104.891C57.9821 104.877 58.0184 104.874 58.0596 104.884C58.1007 104.894 58.1371 104.89 58.1404 104.876C58.1437 104.862 58.18 104.859 58.2212 104.869C58.2624 104.879 58.2987 104.876 58.302 104.862C58.3053 104.848 58.3416 104.845 58.3828 104.855C58.424 104.865 58.4603 104.861 58.4636 104.847C58.4669 104.833 58.5033 104.83 58.5444 104.84C58.5856 104.85 58.6219 104.847 58.6252 104.833C58.6285 104.819 58.6649 104.816 58.706 104.826C58.7472 104.836 58.7835 104.832 58.7868 104.818C58.7901 104.804 58.8265 104.801 58.8676 104.811C58.9088 104.821 58.9452 104.818 58.9484 104.804C58.9517 104.79 58.9881 104.787 59.0292 104.796C59.0704 104.806 59.1068 104.803 59.11 104.789C59.1133 104.775 59.1497 104.772 59.1908 104.782C59.232 104.792 59.2684 104.789 59.2717 104.775C59.2749 104.761 59.3001 104.755 59.3275 104.761C59.3549 104.768 59.3801 104.762 59.3834 104.748C59.3867 104.734 59.4118 104.728 59.4392 104.735C59.4667 104.741 59.4918 104.735 59.4951 104.721C59.4984 104.707 59.5347 104.704 59.5759 104.714C59.6171 104.724 59.6534 104.721 59.6567 104.707C59.66 104.693 59.6851 104.687 59.7126 104.694C59.74 104.7 59.7651 104.694 59.7684 104.68C59.7717 104.666 59.7968 104.66 59.8243 104.667C59.8517 104.674 59.8769 104.668 59.8801 104.654C59.8834 104.64 59.9086 104.634 59.936 104.64C59.9634 104.647 59.9886 104.641 59.9919 104.627C59.9951 104.613 60.0203 104.607 60.0477 104.614C60.0751 104.62 60.1003 104.614 60.1036 104.6C60.1069 104.586 60.132 104.58 60.1594 104.587C60.1869 104.594 60.212 104.588 60.2153 104.574C60.2186 104.56 60.2412 104.553 60.2656 104.559C60.2901 104.565 60.3316 104.551 60.3579 104.528C60.3843 104.505 60.4258 104.49 60.4502 104.496C60.4746 104.502 60.4973 104.496 60.5005 104.482C60.5038 104.468 60.5265 104.461 60.5509 104.467C60.5753 104.473 60.6168 104.459 60.6432 104.436C60.6695 104.413 60.7086 104.398 60.7299 104.403C60.7513 104.408 60.7904 104.394 60.8167 104.37C60.8431 104.347 60.8821 104.333 60.9035 104.338C60.9249 104.343 60.9639 104.328 60.9903 104.305C61.0166 104.282 61.0557 104.267 61.077 104.272C61.0984 104.278 61.1375 104.263 61.1638 104.24C61.1902 104.217 61.2272 104.201 61.2461 104.206C61.265 104.211 61.32 104.188 61.3683 104.155C61.4166 104.122 61.4693 104.099 61.4855 104.103C61.5016 104.107 61.5687 104.075 61.6346 104.032C61.7004 103.988 61.7665 103.956 61.7814 103.96C61.8169 103.968 62.6407 103.452 62.6492 103.416C62.6527 103.401 62.7109 103.356 62.7784 103.315C62.8459 103.275 62.9043 103.228 62.9081 103.212C62.912 103.196 62.9563 103.158 63.0067 103.129C63.0571 103.1 63.102 103.06 63.1065 103.041C63.111 103.022 63.141 102.995 63.1732 102.981C63.2054 102.968 63.2359 102.939 63.241 102.917C63.2461 102.896 63.2766 102.867 63.3088 102.853C63.341 102.84 63.3721 102.808 63.3779 102.783C63.3838 102.759 63.3998 102.741 63.4135 102.744C63.4272 102.748 63.4438 102.727 63.4504 102.7C63.4569 102.672 63.4735 102.651 63.4872 102.655C63.501 102.658 63.5176 102.638 63.5241 102.61C63.5307 102.582 63.5473 102.562 63.561 102.565C63.5747 102.569 63.5913 102.548 63.5979 102.52C63.6045 102.493 63.6211 102.472 63.6348 102.476C63.6485 102.479 63.6651 102.459 63.6717 102.431C63.6782 102.403 63.6948 102.383 63.7085 102.386C63.7223 102.39 63.7389 102.369 63.7454 102.341C63.752 102.314 63.7686 102.293 63.7823 102.297C63.796 102.3 63.8126 102.28 63.8192 102.252C63.8257 102.224 63.8423 102.204 63.8561 102.207C63.8698 102.211 63.8864 102.19 63.8929 102.162C63.8995 102.134 63.9161 102.114 63.9298 102.118C63.9435 102.121 63.9628 102.089 63.9727 102.048C63.9825 102.006 64.0018 101.974 64.0155 101.977C64.0293 101.981 64.0458 101.961 64.0524 101.933C64.059 101.905 64.0756 101.884 64.0893 101.888C64.103 101.891 64.1223 101.86 64.1321 101.818C64.142 101.776 64.1613 101.744 64.175 101.748C64.1887 101.751 64.208 101.719 64.2178 101.677C64.2277 101.635 64.247 101.604 64.2607 101.607C64.2744 101.611 64.2964 101.567 64.3095 101.512C64.3226 101.456 64.3446 101.413 64.3583 101.416C64.3721 101.419 64.3967 101.365 64.4131 101.295C64.4295 101.225 64.4542 101.171 64.4679 101.174C64.4816 101.177 64.5063 101.123 64.5227 101.053C64.5391 100.983 64.5638 100.929 64.5775 100.932C64.5923 100.936 64.6243 100.845 64.6561 100.71C64.688 100.574 64.72 100.483 64.7348 100.487C64.7502 100.491 64.7916 100.358 64.8433 100.137C64.895 99.9173 64.9174 99.7796 64.9019 99.7758C64.887 99.7722 64.9009 99.6682 64.9367 99.5158C64.9725 99.3634 64.9864 99.2594 64.9714 99.2557C64.9577 99.2524 64.9599 99.1925 64.9763 99.1227C64.9927 99.0528 64.9949 98.993 64.9812 98.9896C64.9675 98.9863 64.9697 98.9264 64.9861 98.8566C65.0025 98.7867 65.0047 98.7269 64.991 98.7235C64.9773 98.7202 64.9768 98.6718 64.9899 98.6159C65.0031 98.56 65.0026 98.5116 64.9888 98.5082C64.9751 98.5049 64.9746 98.4565 64.9878 98.4006C65.0009 98.3447 65.0004 98.2963 64.9867 98.2929C64.973 98.2896 64.9698 98.2526 64.9797 98.2107C64.9895 98.1688 64.9863 98.1318 64.9726 98.1285C64.9589 98.1251 64.9557 98.0881 64.9656 98.0462C64.9754 98.0043 64.9723 97.9673 64.9586 97.964C64.9448 97.9606 64.9417 97.9236 64.9515 97.8817C64.9614 97.8398 64.9582 97.8028 64.9445 97.7995C64.9307 97.7961 64.9276 97.7591 64.9374 97.7172C64.9473 97.6753 64.9441 97.6383 64.9304 97.635C64.9167 97.6316 64.9135 97.5946 64.9233 97.5527C64.9332 97.5108 64.93 97.4738 64.9163 97.4705C64.9026 97.4672 64.8994 97.4301 64.9093 97.3882C64.9191 97.3463 64.916 97.3093 64.9022 97.306C64.8885 97.3027 64.8853 97.2657 64.8952 97.2237C64.905 97.1818 64.9019 97.1448 64.8881 97.1415C64.8744 97.1382 64.8686 97.1126 64.8751 97.0846C64.8817 97.0567 64.8759 97.0311 64.8621 97.0278C64.8484 97.0245 64.8452 96.9875 64.8551 96.9456C64.8649 96.9036 64.8618 96.8666 64.8481 96.8633C64.8343 96.86 64.8285 96.8344 64.835 96.8065C64.8416 96.7785 64.8358 96.7529 64.822 96.7496C64.8083 96.7463 64.8051 96.7093 64.815 96.6674C64.8248 96.6255 64.8217 96.5884 64.808 96.5851C64.7942 96.5818 64.7884 96.5562 64.7949 96.5283C64.8015 96.5003 64.7957 96.4748 64.7819 96.4714C64.7682 96.4681 64.7624 96.4425 64.7689 96.4146C64.7755 96.3866 64.7696 96.3611 64.7559 96.3577C64.7422 96.3544 64.7364 96.3288 64.7429 96.3009C64.7495 96.273 64.7436 96.2474 64.7299 96.2441C64.7162 96.2407 64.7103 96.2152 64.7169 96.1872C64.7235 96.1593 64.7176 96.1337 64.7039 96.1304C64.6902 96.127 64.6843 96.1015 64.6909 96.0735C64.6974 96.0456 64.6916 96.02 64.6779 96.0167C64.6642 96.0133 64.661 95.9763 64.6708 95.9344C64.6807 95.8925 64.6775 95.8555 64.6638 95.8522C64.6501 95.8489 64.6442 95.8233 64.6508 95.7953C64.6573 95.7674 64.6515 95.7418 64.6378 95.7385C64.6241 95.7352 64.6176 95.7121 64.6235 95.6873C64.6293 95.6624 64.6155 95.6201 64.5928 95.5934C64.5701 95.5666 64.5563 95.5243 64.5621 95.4995C64.568 95.4746 64.5615 95.4515 64.5478 95.4482C64.5341 95.4449 64.5282 95.4193 64.5348 95.3914C64.5413 95.3634 64.5355 95.3379 64.5218 95.3345C64.5081 95.3312 64.5022 95.3056 64.5088 95.2777C64.5153 95.2497 64.5095 95.2242 64.4958 95.2208C64.482 95.2175 64.4756 95.1945 64.4814 95.1696C64.4873 95.1447 64.4735 95.1025 64.4508 95.0757C64.4281 95.0489 64.4143 95.0067 64.4201 94.9818C64.4259 94.957 64.4195 94.9339 64.4058 94.9306C64.3921 94.9272 64.3862 94.9017 64.3928 94.8737C64.3993 94.8458 64.3935 94.8202 64.3798 94.8169C64.366 94.8136 64.3596 94.7905 64.3654 94.7656C64.3713 94.7408 64.3575 94.6985 64.3348 94.6717C64.3121 94.645 64.2977 94.6052 64.3028 94.5835C64.3079 94.5617 64.2935 94.522 64.2708 94.4952C64.2481 94.4684 64.2343 94.4261 64.2401 94.4013C64.246 94.3764 64.2395 94.3534 64.2258 94.35C64.2121 94.3467 64.2056 94.3236 64.2115 94.2988C64.2173 94.2739 64.2035 94.2317 64.1808 94.2049C64.1581 94.1781 64.1443 94.1359 64.1501 94.111C64.156 94.0862 64.1495 94.0631 64.1358 94.0598C64.1221 94.0564 64.1152 94.0355 64.1204 94.0131C64.1257 93.9908 64.1038 93.9323 64.0718 93.8832C64.0399 93.8341 64.0169 93.7802 64.0209 93.7635C64.0248 93.7467 64.0019 93.6928 63.9699 93.6437C63.938 93.5946 63.9155 93.5386 63.92 93.5194C63.9246 93.5002 63.9097 93.4625 63.887 93.4357C63.8643 93.4089 63.8493 93.3715 63.8538 93.3525C63.8582 93.3335 63.8273 93.2632 63.785 93.1962C63.7428 93.1292 63.7113 93.0612 63.7151 93.0451C63.7189 93.0289 63.6874 92.9609 63.6452 92.8939C63.6029 92.8269 63.5714 92.7592 63.5751 92.7435C63.5788 92.7277 63.5217 92.6169 63.4484 92.4972C63.375 92.3775 63.3178 92.2674 63.3213 92.2527C63.3295 92.2177 62.7477 91.2536 62.7134 91.2453C62.6989 91.2418 62.6198 91.1259 62.5375 90.9879C62.4552 90.8498 62.3754 90.7338 62.3602 90.7301C62.345 90.7265 62.2913 90.6531 62.2409 90.567C62.1905 90.481 62.1364 90.4075 62.1207 90.4037C62.105 90.3999 62.0598 90.3406 62.0202 90.2719C61.9806 90.2033 61.935 90.1439 61.9189 90.14C61.9027 90.1361 61.8661 90.091 61.8375 90.0397C61.8089 89.9885 61.772 89.9433 61.7556 89.9394C61.7392 89.9354 61.7023 89.8902 61.6737 89.839C61.6451 89.7878 61.6062 89.7421 61.5874 89.7375C61.5685 89.7329 61.5422 89.7024 61.529 89.6697C61.5157 89.6369 61.4895 89.6064 61.4705 89.6018C61.4517 89.5973 61.4128 89.5516 61.3842 89.5004C61.3556 89.4491 61.3167 89.4035 61.2978 89.3989C61.2789 89.3943 61.2526 89.3638 61.2394 89.3311C61.2262 89.2983 61.1979 89.2673 61.1765 89.2621C61.1551 89.257 61.1268 89.2259 61.1136 89.1932C61.1004 89.1605 61.0696 89.1289 61.0452 89.1229C61.0208 89.117 61.0035 89.1008 61.0068 89.0868C61.0101 89.0728 60.9928 89.0565 60.9684 89.0506C60.944 89.0447 60.9132 89.0131 60.9 88.9804C60.8867 88.9476 60.8584 88.9166 60.8371 88.9114C60.8157 88.9063 60.7874 88.8752 60.7742 88.8425C60.761 88.8098 60.7326 88.7788 60.7113 88.7736C60.6899 88.7684 60.6616 88.7374 60.6484 88.7046C60.6352 88.6719 60.6044 88.6403 60.58 88.6344C60.5556 88.6285 60.5383 88.6122 60.5415 88.5982C60.5448 88.5843 60.5251 88.5674 60.4976 88.5607C60.4702 88.5541 60.4504 88.5372 60.4537 88.5232C60.457 88.5093 60.4397 88.493 60.4153 88.4871C60.3909 88.4812 60.3601 88.4496 60.3469 88.4168C60.3337 88.3841 60.3029 88.3525 60.2785 88.3466C60.2541 88.3407 60.2368 88.3244 60.2401 88.3104C60.2433 88.2964 60.2236 88.2796 60.1961 88.2729C60.1687 88.2663 60.1489 88.2494 60.1522 88.2354C60.1555 88.2215 60.1357 88.2046 60.1083 88.198C60.0809 88.1913 60.0611 88.1744 60.0644 88.1605C60.0677 88.1465 60.0479 88.1296 60.0205 88.123C59.993 88.1163 59.9733 88.0995 59.9765 88.0855C59.9798 88.0715 59.96 88.0547 59.9326 88.048C59.9052 88.0414 59.8854 88.0245 59.8887 88.0105C59.892 87.9965 59.8722 87.9797 59.8448 87.973C59.8173 87.9664 59.7976 87.9495 59.8008 87.9355C59.8041 87.9216 59.7844 87.9047 59.7569 87.8981C59.7295 87.8914 59.7097 87.8745 59.713 87.8606C59.7163 87.8466 59.6965 87.8297 59.6691 87.8231C59.6416 87.8164 59.6219 87.7996 59.6252 87.7856C59.6284 87.7716 59.6087 87.7548 59.5812 87.7481C59.5538 87.7415 59.534 87.7246 59.5373 87.7106C59.5406 87.6967 59.5208 87.6798 59.4934 87.6731C59.466 87.6665 59.4462 87.6496 59.4495 87.6356C59.4528 87.6217 59.433 87.6048 59.4055 87.5982C59.3781 87.5915 59.3583 87.5746 59.3616 87.5607C59.3649 87.5467 59.3451 87.5298 59.3177 87.5232C59.2903 87.5165 59.2705 87.4997 59.2738 87.4857C59.2771 87.4717 59.2573 87.4549 59.2299 87.4482C59.2024 87.4416 59.1827 87.4247 59.1859 87.4107C59.1892 87.3968 59.1582 87.3772 59.1171 87.3672C59.0759 87.3572 59.0449 87.3376 59.0482 87.3237C59.0515 87.3097 59.0317 87.2928 59.0043 87.2862C58.9768 87.2795 58.9571 87.2627 58.9604 87.2487C58.9636 87.2347 58.9439 87.2179 58.9164 87.2112C58.889 87.2046 58.8692 87.1877 58.8725 87.1737C58.8758 87.1597 58.8448 87.1402 58.8036 87.1302C58.7625 87.1202 58.7315 87.1006 58.7348 87.0867C58.7381 87.0727 58.7183 87.0558 58.6909 87.0492C58.6634 87.0425 58.6437 87.0257 58.6469 87.0117C58.6502 86.9977 58.6192 86.9781 58.5781 86.9682C58.5369 86.9582 58.5059 86.9386 58.5092 86.9246C58.5125 86.9107 58.4927 86.8938 58.4653 86.8871C58.4378 86.8805 58.4181 86.8636 58.4214 86.8496C58.4246 86.8357 58.3937 86.8161 58.3525 86.8061C58.3113 86.7961 58.2803 86.7766 58.2836 86.7626C58.2869 86.7486 58.2559 86.729 58.2148 86.7191C58.1736 86.7091 58.1426 86.6895 58.1459 86.6755C58.1492 86.6616 58.1182 86.642 58.077 86.632C58.0359 86.622 58.0049 86.6024 58.0082 86.5885C58.0114 86.5745 57.9804 86.5549 57.9393 86.5449C57.8981 86.535 57.8671 86.5154 57.8704 86.5014C57.8737 86.4874 57.8427 86.4679 57.8016 86.4579C57.7604 86.4479 57.7294 86.4283 57.7327 86.4144C57.736 86.4004 57.705 86.3808 57.6638 86.3708C57.6227 86.3608 57.5917 86.3413 57.5949 86.3273C57.5982 86.3133 57.556 86.291 57.5011 86.2777C57.4463 86.2644 57.404 86.2421 57.4073 86.2281C57.4106 86.2142 57.3796 86.1946 57.3385 86.1846C57.2803 86.1705 57.261 86.1778 57.2517 86.2173C57.2451 86.2452 57.251 86.2708 57.2647 86.2741C57.2809 86.2781 57.2081 86.6273 57.0569 87.2708C56.9057 87.9143 56.8154 88.2594 56.7992 88.2554C56.7842 88.2518 56.7503 88.351 56.7145 88.5034C56.6787 88.6558 56.6449 88.755 56.6299 88.7514C56.6157 88.7479 56.587 88.8215 56.5632 88.9231C56.5393 89.0247 56.5107 89.0983 56.4964 89.0949C56.4826 89.0915 56.4556 89.1566 56.4357 89.2413C56.4158 89.3259 56.3888 89.391 56.3749 89.3876C56.3611 89.3843 56.3341 89.4493 56.3142 89.534C56.2943 89.6186 56.2673 89.6837 56.2534 89.6803C56.2397 89.677 56.2177 89.72 56.2046 89.7759C56.1915 89.8318 56.1695 89.8748 56.1558 89.8715C56.1421 89.8681 56.1174 89.9226 56.101 89.9924C56.0846 90.0623 56.0599 90.1167 56.0462 90.1134C56.0325 90.1101 56.0105 90.1531 55.9974 90.209C55.9843 90.2648 55.9623 90.3078 55.9486 90.3045C55.9348 90.3012 55.9102 90.3556 55.8938 90.4255C55.8774 90.4953 55.8527 90.5498 55.839 90.5464C55.8253 90.5431 55.8033 90.5861 55.7902 90.642C55.777 90.6979 55.7551 90.7409 55.7414 90.7376C55.7276 90.7342 55.7084 90.7658 55.6985 90.8077C55.6887 90.8496 55.6694 90.8812 55.6557 90.8779C55.6419 90.8746 55.62 90.9176 55.6068 90.9735C55.5937 91.0293 55.5717 91.0723 55.558 91.069C55.5443 91.0657 55.525 91.0973 55.5152 91.1392C55.5053 91.1811 55.486 91.2127 55.4723 91.2093C55.4586 91.206 55.4393 91.2376 55.4295 91.2795C55.4196 91.3214 55.4003 91.353 55.3866 91.3497C55.3729 91.3463 55.3536 91.3779 55.3438 91.4198C55.3339 91.4617 55.3146 91.4933 55.3009 91.49C55.2872 91.4867 55.2679 91.5182 55.2581 91.5601C55.2482 91.602 55.2289 91.6336 55.2152 91.6303C55.2015 91.627 55.1822 91.6585 55.1724 91.7005C55.1625 91.7424 55.1432 91.7739 55.1295 91.7706C55.1158 91.7673 55.0938 91.8103 55.0807 91.8662C55.0676 91.9221 55.0456 91.9651 55.0319 91.9617C55.0182 91.9584 55.0016 91.9786 54.995 92.0065C54.9884 92.0344 54.9718 92.0546 54.9581 92.0513C54.9444 92.0479 54.9251 92.0795 54.9153 92.1214C54.9054 92.1633 54.8861 92.1949 54.8724 92.1916C54.8587 92.1883 54.8421 92.2084 54.8355 92.2363C54.829 92.2643 54.8124 92.2844 54.7986 92.2811C54.7849 92.2778 54.7683 92.2979 54.7618 92.3259C54.7552 92.3538 54.7386 92.3739 54.7249 92.3706C54.7112 92.3673 54.6946 92.3874 54.688 92.4154C54.6814 92.4433 54.6648 92.4635 54.6511 92.4601C54.6374 92.4568 54.6181 92.4884 54.6083 92.5303C54.5984 92.5722 54.5791 92.6038 54.5654 92.6005C54.5517 92.5971 54.5351 92.6173 54.5285 92.6452C54.522 92.6732 54.5054 92.6933 54.4916 92.69C54.4779 92.6867 54.4613 92.7068 54.4548 92.7347C54.4482 92.7627 54.4316 92.7828 54.4179 92.7795C54.4042 92.7762 54.3882 92.7938 54.3823 92.8186C54.3765 92.8435 54.3454 92.8749 54.3132 92.8884C54.281 92.9019 54.2499 92.9332 54.2441 92.9581C54.2383 92.983 54.2222 93.0006 54.2085 92.9973C54.1948 92.9939 54.1788 93.0116 54.173 93.0364C54.1671 93.0613 54.136 93.0926 54.1038 93.1061C54.0717 93.1196 54.0406 93.151 54.0347 93.1759C54.0289 93.2007 54.0129 93.2183 53.9992 93.215C53.9854 93.2117 53.9694 93.2293 53.9636 93.2542C53.9578 93.279 53.9267 93.3104 53.8945 93.3239C53.8623 93.3374 53.8312 93.3687 53.8254 93.3936C53.8195 93.4185 53.8035 93.4361 53.7898 93.4328C53.7761 93.4294 53.7595 93.4496 53.7529 93.4775C53.7464 93.5055 53.7298 93.5256 53.716 93.5223C53.7023 93.519 53.6863 93.5366 53.6805 93.5614C53.6746 93.5863 53.6435 93.6177 53.6114 93.6312C53.5792 93.6447 53.5481 93.676 53.5423 93.7009C53.5364 93.7257 53.5204 93.7434 53.5067 93.74C53.493 93.7367 53.4764 93.7569 53.4698 93.7848C53.4632 93.8127 53.4466 93.8329 53.4329 93.8296C53.4167 93.8256 53.4915 93.4679 53.6467 92.8075C53.8019 92.147 53.8767 91.7893 53.8605 91.7854C53.8451 91.7816 53.8674 91.6439 53.9191 91.4237C53.9709 91.2036 53.9932 91.0658 53.9777 91.0621C53.9628 91.0584 53.9767 90.9544 54.0125 90.802C54.0483 90.6496 54.0622 90.5456 54.0472 90.5419C54.0323 90.5383 54.0461 90.4343 54.082 90.2819C54.1178 90.1295 54.1317 90.0255 54.1167 90.0218C54.1022 90.0183 54.1116 89.9311 54.1395 89.8126C54.1674 89.694 54.1768 89.6069 54.1623 89.6033C54.1481 89.5999 54.1553 89.5211 54.1791 89.4195C54.203 89.3179 54.2102 89.2391 54.196 89.2356C54.1814 89.2321 54.1909 89.1449 54.2188 89.0264C54.2466 88.9078 54.2561 88.8206 54.2416 88.8171C54.2277 88.8138 54.2325 88.7433 54.2524 88.6587C54.2723 88.574 54.2772 88.5036 54.2633 88.5002C54.2494 88.4969 54.2543 88.4264 54.2742 88.3418C54.2941 88.2571 54.2989 88.1867 54.285 88.1833C54.2712 88.18 54.276 88.1095 54.2959 88.0249C54.3158 87.9402 54.3206 87.8698 54.3068 87.8664C54.293 87.8631 54.2953 87.8032 54.3117 87.7334C54.3281 87.6635 54.3303 87.6037 54.3166 87.6003C54.3027 87.597 54.3075 87.5265 54.3274 87.4419C54.3473 87.3572 54.3522 87.2868 54.3383 87.2834C54.3246 87.2801 54.3268 87.2202 54.3432 87.1504C54.3596 87.0805 54.3618 87.0207 54.3481 87.0173C54.3344 87.014 54.3366 86.9541 54.353 86.8843C54.3694 86.8144 54.3716 86.7546 54.3579 86.7512C54.3442 86.7479 54.3437 86.6995 54.3568 86.6436C54.3699 86.5877 54.3695 86.5393 54.3557 86.5359C54.342 86.5326 54.3415 86.4842 54.3547 86.4283C54.3678 86.3724 54.3673 86.324 54.3536 86.3206C54.3399 86.3173 54.3367 86.2803 54.3466 86.2384C54.3564 86.1965 54.3532 86.1595 54.3395 86.1562C54.3258 86.1528 54.3253 86.1044 54.3384 86.0485C54.3516 85.9926 54.3511 85.9442 54.3374 85.9409C54.3237 85.9375 54.3232 85.8891 54.3363 85.8332C54.3494 85.7773 54.349 85.7289 54.3352 85.7256C54.3215 85.7222 54.3183 85.6852 54.3282 85.6433C54.338 85.6014 54.3349 85.5644 54.3212 85.5611C54.3074 85.5577 54.307 85.5093 54.3201 85.4534C54.3332 85.3975 54.3327 85.3491 54.319 85.3458C54.3053 85.3424 54.3048 85.294 54.3179 85.2381C54.3311 85.1822 54.3306 85.1338 54.3169 85.1305C54.3032 85.1272 54.3027 85.0787 54.3158 85.0228C54.3289 84.9669 54.3284 84.9185 54.3147 84.9152C54.301 84.9119 54.2978 84.8748 54.3077 84.8329C54.3236 84.7652 54.3173 84.7547 54.2508 84.7386C54.2096 84.7286 54.1786 84.709 54.1819 84.6951C54.1852 84.6811 54.1317 84.6561 54.0631 84.6395C53.9945 84.6228 53.9411 84.5978 53.9444 84.5838C53.9477 84.5697 53.8838 84.5423 53.8007 84.5222C53.7175 84.502 53.6536 84.4746 53.657 84.4605C53.6608 84.4441 53.3553 84.3606 52.7899 84.2236C52.2244 84.0866 51.9147 84.0211 51.9108 84.0375Z" fill="#758796"/>
</svg>
