<svg width="200" height="200" viewBox="0 0 200 200" fill="none" xmlns="http://www.w3.org/2000/svg">
<path fill-rule="evenodd" clip-rule="evenodd" d="M30 20C24.4772 20 20 24.4772 20 30V170C20 175.523 24.4772 180 30 180H170C175.523 180 180 175.523 180 170V30C180 24.4772 175.523 20 170 20H30ZM0 30C0 13.4315 13.4315 0 30 0H170C186.569 0 200 13.4315 200 30V170C200 186.569 186.569 200 170 200H30C13.4315 200 0 186.569 0 170V30Z" fill="#8A9BA8" fill-opacity="0.15"/>
<path fill-rule="evenodd" clip-rule="evenodd" d="M65 60.0001C62.2386 60.0001 60 62.2387 60 65.0001C60 67.7615 62.2386 70.0001 65 70.0001C67.7614 70.0001 70 67.7615 70 65.0001C70 62.2387 67.7614 60.0001 65 60.0001ZM40 65.0001C40 51.193 51.1929 40.0001 65 40.0001C78.8071 40.0001 90 51.193 90 65.0001C90 78.8072 78.8071 90.0001 65 90.0001C51.1929 90.0001 40 78.8072 40 65.0001Z" fill="#8A9BA8" fill-opacity="0.15"/>
<path fill-rule="evenodd" clip-rule="evenodd" d="M132.929 72.9291C136.834 69.0238 143.166 69.0238 147.071 72.9291L197.071 122.929C200.976 126.834 200.976 133.166 197.071 137.071C193.166 140.976 186.834 140.976 182.929 137.071L140 94.1423L37.071 197.071C33.1658 200.976 26.8341 200.976 22.9289 197.071C19.0237 193.166 19.0237 186.834 22.9289 182.929L132.929 72.9291Z" fill="#8A9BA8" fill-opacity="0.15"/>
</svg>
