<svg width="187" height="139" viewBox="0 0 187 139" fill="none" xmlns="http://www.w3.org/2000/svg">
<path fill-rule="evenodd" clip-rule="evenodd" d="M28.05 18.7C22.8861 18.7 18.7 22.8861 18.7 28.05V158.95C18.7 164.114 22.8861 168.3 28.05 168.3H158.95C164.114 168.3 168.3 164.114 168.3 158.95V28.05C168.3 22.8861 164.114 18.7 158.95 18.7H28.05ZM0 28.05C0 12.5584 12.5584 0 28.05 0H158.95C174.442 0 187 12.5584 187 28.05V158.95C187 174.441 174.442 187 158.95 187H28.05C12.5584 187 0 174.441 0 158.95V28.05Z" fill="#8A9BA8" fill-opacity="0.15"/>
<path fill-rule="evenodd" clip-rule="evenodd" d="M60.775 56.1001C58.1931 56.1001 56.1 58.1931 56.1 60.7751C56.1 63.357 58.1931 65.4501 60.775 65.4501C63.3569 65.4501 65.45 63.357 65.45 60.7751C65.45 58.1931 63.3569 56.1001 60.775 56.1001ZM37.4 60.7751C37.4 47.8654 47.8653 37.4001 60.775 37.4001C73.6846 37.4001 84.15 47.8654 84.15 60.7751C84.15 73.6847 73.6846 84.1501 60.775 84.1501C47.8653 84.1501 37.4 73.6847 37.4 60.7751Z" fill="#8A9BA8" fill-opacity="0.15"/>
<path fill-rule="evenodd" clip-rule="evenodd" d="M124.289 68.1886C127.94 64.5372 133.86 64.5372 137.511 68.1886L184.261 114.939C187.913 118.59 187.913 124.51 184.261 128.161C180.61 131.813 174.69 131.813 171.038 128.161L130.9 88.023L34.6614 184.261C31.01 187.913 25.0899 187.913 21.4385 184.261C17.7871 180.61 17.7871 174.69 21.4385 171.039L124.289 68.1886Z" fill="#8A9BA8" fill-opacity="0.15"/>
</svg>
