<svg width="16" height="16" viewBox="0 0 16 16" fill="none" xmlns="http://www.w3.org/2000/svg">
<path d="M6.18174 14.7878C6.51646 14.7878 6.7878 14.5165 6.7878 14.1817C6.7878 13.847 6.51646 13.5757 6.18174 13.5757C5.84703 13.5757 5.57568 13.847 5.57568 14.1817C5.57568 14.5165 5.84703 14.7878 6.18174 14.7878Z" fill="#394B59" stroke="#394B59" stroke-width="1.5" stroke-linecap="round" stroke-linejoin="round"/>
<path d="M12.8482 14.7878C13.183 14.7878 13.4543 14.5165 13.4543 14.1817C13.4543 13.847 13.183 13.5757 12.8482 13.5757C12.5135 13.5757 12.2422 13.847 12.2422 14.1817C12.2422 14.5165 12.5135 14.7878 12.8482 14.7878Z" fill="#394B59" stroke="#394B59" stroke-width="1.5" stroke-linecap="round" stroke-linejoin="round"/>
<path d="M1.3335 2.06055H3.75774L5.38198 10.1757C5.4374 10.4547 5.5892 10.7054 5.8108 10.8838C6.03239 11.0621 6.30968 11.1569 6.5941 11.1515H12.485C12.7694 11.1569 13.0467 11.0621 13.2683 10.8838C13.4899 10.7054 13.6417 10.4547 13.6971 10.1757L14.6668 5.09085H4.3638" stroke="#394B59" stroke-width="2" stroke-linecap="round" stroke-linejoin="round"/>
</svg>
