<svg width="108" height="108" viewBox="0 0 108 108" fill="none" xmlns="http://www.w3.org/2000/svg">
<path d="M81.9881 17.053C79.035 17.053 76.1325 17.5677 73.3397 18.597C72.4652 18.917 71.7179 19.5117 71.2099 20.292C70.7018 21.0724 70.4603 21.9963 70.5215 22.9255C70.5553 23.3895 71.3315 34.333 75.4575 45.3608C79.5834 56.4055 85.4981 64.1427 85.7512 64.4717C86.3083 65.1976 87.0827 65.7266 87.9614 65.9816C88.8402 66.2365 89.7774 66.2042 90.6365 65.8892C103.672 61.1136 110.397 46.6264 105.63 33.5905C102.01 23.7017 92.5097 17.053 81.9881 17.053Z" fill="#BFCCD6"/>
<path d="M49.8408 2.7588C46.4405 2.7588 43.1161 3.44224 39.9689 4.7838C33.7842 7.4163 29.0002 12.3101 26.4858 18.5538C23.9798 24.7976 24.0558 31.6319 26.6967 37.8166C27.3717 39.4197 28.9495 40.4322 30.6539 40.4322C30.7973 40.4322 30.9323 40.4238 31.0673 40.4154C31.4808 40.3732 41.167 39.3944 52.0514 34.8382C62.9105 30.2988 71.4239 23.3716 71.7783 23.0763C72.4991 22.4854 73.0082 21.6761 73.2289 20.7706C73.4495 19.865 73.3698 18.9123 73.0017 18.056C71.0688 13.5144 67.8419 9.64212 63.7233 6.9219C59.6047 4.20168 54.7766 2.75382 49.8408 2.7588Z" fill="#BFCCD6"/>
<path d="M65.4165 42.1786C65.3321 41.7651 65.0452 41.4276 64.674 41.2673L61.5099 39.892C61.0627 39.6979 60.548 39.7739 60.1768 40.0692C59.7971 40.3814 59.6284 40.8708 59.7296 41.3433C59.7296 41.3601 60.1262 43.4273 58.9702 45.157C58.1349 46.3973 56.6668 47.2073 54.5996 47.5701C49.0984 48.5404 48.4824 52.1095 48.0437 54.7082C47.6218 57.172 47.3265 58.2773 44.829 58.5136C42.053 58.7751 40.0112 59.8129 38.754 61.6017C36.7374 64.4536 37.6234 68.107 37.6571 68.2589C37.7499 68.647 38.0284 68.9676 38.3996 69.1279L41.5637 70.5033C41.7324 70.5792 41.9096 70.6129 42.0784 70.6129C42.2739 70.6133 42.467 70.5693 42.6431 70.4841C42.8191 70.3989 42.9735 70.2748 43.0946 70.1212C43.2157 69.9676 43.3003 69.7885 43.3421 69.5975C43.3838 69.4064 43.3816 69.2083 43.3355 69.0183C43.3355 68.9929 42.7112 66.3351 44.0443 64.462C44.8543 63.3314 46.2634 62.6564 48.2462 62.4708C52.8277 62.032 53.3677 58.8511 53.7643 56.5308C54.1862 54.0839 54.5068 52.1517 58.2193 51.502C61.0037 51.0126 63.0455 49.8314 64.2859 47.9836C66.0577 45.3173 65.4502 42.3051 65.4165 42.1786Z" fill="#98A8B3"/>
<path d="M75.4563 78.9241C73.5157 77.3295 73.8869 76.2579 74.9079 73.9713C75.9963 71.5666 77.4813 68.2591 73.4482 64.3863C71.9463 62.9435 71.1785 61.4501 71.1701 59.9651C71.1532 57.8641 72.6551 56.3623 72.6635 56.3454C73.0094 56.0079 73.136 55.5101 73.001 55.046C72.8576 54.5819 72.4779 54.236 71.9969 54.1516L68.6051 53.5273C68.2001 53.4513 67.7782 53.5779 67.4744 53.8648C67.3901 53.9576 65.1879 56.1176 65.1963 59.3154C65.1963 61.5345 66.2426 63.6523 68.2676 65.6182C70.9844 68.2254 70.1829 70.0141 69.1619 72.2838C68.2001 74.4354 66.8754 77.3716 70.4276 80.291C71.9716 81.5566 72.7732 82.8982 72.8069 84.2904C72.8744 86.5938 70.8748 88.4501 70.8579 88.4585C70.4866 88.7876 70.3516 89.3023 70.4782 89.7663C70.6132 90.2473 71.0013 90.6016 71.4907 90.686L74.8826 91.3104C74.9585 91.3273 75.0344 91.3357 75.1104 91.3357C75.4226 91.3357 75.7348 91.2176 75.9794 91.0066C76.0976 90.897 78.8735 88.3657 78.7891 84.8726C78.7216 82.6957 77.6079 80.696 75.4563 78.9241Z" fill="#5C7080"/>
<path d="M57.0108 78.4195C58.8839 75.1711 57.8545 72.2854 57.8124 72.1589C57.6858 71.8214 57.4242 71.5429 57.0783 71.4164L54.0577 70.2014C53.5936 70.0157 53.0536 70.117 52.6908 70.4714C52.328 70.8173 52.193 71.3573 52.3617 71.8382C52.3871 71.9142 53.003 73.762 51.7542 75.9136C51.1805 76.8923 50.4549 77.2551 49.5267 77.7107C48.4721 78.2254 47.1558 78.8667 46.3627 80.5711C45.6202 82.1573 45.8142 83.6929 45.9746 85.0514C46.1264 86.2917 46.253 87.3548 45.7467 88.4095C45.2152 89.5401 44.3039 90.1054 43.2492 90.7636C42.203 91.4132 41.0217 92.1473 40.1696 93.5057C39.4439 94.6617 39.3596 95.9779 39.2752 97.2604C39.1317 99.3445 38.963 100.669 37.1489 101.597C36.7017 101.825 36.4233 102.298 36.4402 102.804C36.4655 103.31 36.7777 103.757 37.2502 103.943L40.2708 105.158C40.4227 105.225 40.5914 105.251 40.7517 105.251C40.9542 105.251 41.1483 105.2 41.3339 105.107C44.5402 103.479 44.7342 100.686 44.8608 98.6442C44.9283 97.6401 44.9874 96.6951 45.3755 96.0961C45.9071 95.2354 46.7171 94.7461 47.6367 94.1639C48.8602 93.3961 50.2355 92.5439 51.0961 90.7298C51.923 88.9917 51.7289 87.3717 51.5433 85.9457C51.3999 84.7898 51.2817 83.7857 51.7121 82.8745C52.1002 82.0307 52.6486 81.7354 53.6696 81.2376C54.7411 80.7145 56.0574 80.0817 57.0108 78.4195Z" fill="#5C7080"/>
<path d="M20.1235 63.9468C21.5579 63.8961 23.1864 63.8286 24.8317 62.6811C26.4095 61.5758 27.0339 60.0824 27.5992 58.7493C28.0548 57.6693 28.4429 56.7411 29.2698 56.1589C30.1135 55.5683 30.8982 55.6527 31.7757 55.7118C32.1217 55.7371 32.476 55.7539 32.822 55.7539C33.5898 55.7539 34.7542 55.6696 36.062 54.9102C39.302 53.0286 39.8335 49.9996 39.8589 49.873C39.9179 49.5186 39.8167 49.1474 39.5973 48.8605L37.5723 46.3039C37.2601 45.9074 36.7285 45.7302 36.2392 45.8568C35.7498 45.9833 35.3785 46.3883 35.2942 46.8946C35.2857 46.9114 34.9145 48.8605 32.746 50.1177C32.147 50.4721 31.5817 50.6155 30.8054 50.6155C30.5101 50.6155 30.2148 50.5986 29.9195 50.5818C29.582 50.5564 29.2529 50.5396 28.9154 50.5396C28.0717 50.5396 26.9579 50.6493 25.7598 51.5014C24.3254 52.5139 23.7348 53.9399 23.2032 55.2055C22.7223 56.353 22.3004 57.3402 21.3385 58.0152C20.3176 58.7239 19.246 58.7661 18.0057 58.8168C16.7823 58.8674 15.3901 58.918 13.9726 59.6774C12.7745 60.3271 12.0404 61.4239 11.3401 62.4871C10.2264 64.1746 9.4501 65.2039 7.59385 65.2039L7.34073 65.1955C6.85135 65.1702 6.36198 65.4402 6.12573 65.8958C5.89792 66.343 5.94854 66.8914 6.26917 67.288L8.29417 69.8446C8.53042 70.1314 8.87635 70.3086 9.23917 70.3255C9.36573 70.3339 9.49229 70.3424 9.61885 70.3424C12.9517 70.3424 14.4367 68.1064 15.5167 66.4696C16.0651 65.6343 16.5967 64.8411 17.221 64.5036C18.0901 64.0227 19.0351 63.9889 20.1235 63.9468Z" fill="#5C7080"/>
<path d="M32.2489 74.4195V70.4455C32.2489 69.7283 31.6668 69.1545 30.958 69.1545H26.9755C26.2668 69.1545 25.6846 69.7283 25.6846 70.4455V74.4195C25.6846 75.1367 26.2583 75.7105 26.9755 75.7105H30.958C31.6752 75.7105 32.2489 75.1283 32.2489 74.4195Z" fill="#98A8B3"/>
<path d="M16.4452 43.3848L13.6355 46.1945C13.1293 46.7008 13.1293 47.5192 13.6355 48.017L16.4452 50.8351C16.6984 51.0798 17.0274 51.2148 17.3565 51.2148C17.694 51.2148 18.023 51.0883 18.2677 50.8351L21.0859 48.017C21.5921 47.5108 21.5921 46.7008 21.0859 46.1945L18.2677 43.3848C17.7615 42.8786 16.943 42.8786 16.4452 43.3848Z" fill="#CED9E0"/>
<path d="M8.59674 51.4107C8.84143 51.1661 8.97643 50.8454 8.97643 50.4995C8.97643 50.162 8.84143 49.8329 8.59674 49.5883L5.77861 46.7701C5.29768 46.2892 4.43705 46.2892 3.95611 46.7701L1.14643 49.5883C0.901738 49.8329 0.758301 50.162 0.758301 50.4995C0.758301 50.8454 0.901738 51.1661 1.14643 51.4107L3.95611 54.2204C4.07553 54.3405 4.21752 54.4359 4.37391 54.5009C4.53029 54.5659 4.69799 54.5994 4.86736 54.5994C5.03673 54.5994 5.20444 54.5659 5.36082 54.5009C5.51721 54.4359 5.65919 54.3405 5.77861 54.2204L8.59674 51.4107Z" fill="#98A8B3"/>
<path d="M23.0589 78.4698C22.5779 77.9804 21.7173 77.9804 21.2279 78.4698L18.4183 81.2795C17.912 81.7858 17.912 82.6042 18.4183 83.1104L21.2279 85.9201C21.3474 86.0402 21.4894 86.1355 21.6457 86.2006C21.8021 86.2656 21.9698 86.2991 22.1392 86.2991C22.3086 86.2991 22.4763 86.2656 22.6327 86.2006C22.789 86.1355 22.931 86.0402 23.0504 85.9201L25.8601 83.1104C26.3664 82.6042 26.3664 81.7858 25.8601 81.2795L23.0589 78.4698Z" fill="#CED9E0"/>
<path d="M57.856 94.4249C57.3497 93.9186 56.5313 93.9186 56.025 94.4249L53.3841 97.0658C52.8778 97.572 52.8778 98.3905 53.3841 98.8967L56.025 101.538C56.1444 101.658 56.2864 101.753 56.4428 101.818C56.5992 101.883 56.7669 101.917 56.9363 101.917C57.1056 101.917 57.2733 101.883 57.4297 101.818C57.5861 101.753 57.7281 101.658 57.8475 101.538L60.4885 98.8967C60.9947 98.3905 60.9947 97.572 60.4885 97.0658L57.856 94.4249Z" fill="#CED9E0"/>
<path d="M93.6217 76.7045C93.7411 76.8246 93.8831 76.9199 94.0395 76.985C94.1959 77.05 94.3636 77.0835 94.5329 77.0835C94.7023 77.0835 94.87 77.05 95.0264 76.985C95.1828 76.9199 95.3248 76.8246 95.4442 76.7045L98.0936 74.0636C98.5914 73.5573 98.5914 72.7473 98.0936 72.2411L95.4442 69.6001C94.938 69.0939 94.1195 69.0939 93.6217 69.6001L90.9808 72.2411C90.4745 72.7473 90.4745 73.5573 90.9808 74.0636L93.6217 76.7045Z" fill="#CED9E0"/>
<path d="M85.4038 94.9817C84.906 94.4755 84.0791 94.4755 83.5729 94.9817L80.932 97.6227C80.4341 98.1289 80.4341 98.9474 80.932 99.4536L83.5729 102.095C83.826 102.339 84.1635 102.474 84.4926 102.474C84.8216 102.474 85.1507 102.348 85.4038 102.095L88.0448 99.4536C88.551 98.9474 88.551 98.1289 88.0448 97.6227L85.4038 94.9817Z" fill="#CED9E0"/>
<path d="M37.4867 88.3082V84.3341C37.4867 83.6254 36.9046 83.0432 36.1958 83.0432H32.2133C31.4961 83.0432 30.9224 83.6254 30.9224 84.3341V88.3082C30.9224 89.0254 31.4961 89.5992 32.2133 89.5992H36.1958C36.9046 89.5992 37.4867 89.017 37.4867 88.3082Z" fill="#CED9E0"/>
<path d="M61.5102 83.1589H57.7724C57.0636 83.1589 56.4814 83.7327 56.4814 84.4499V88.1877C56.4814 88.8964 57.0636 89.4786 57.7724 89.4786H61.5102C62.2189 89.4786 62.8011 88.8964 62.8011 88.1877V84.4499C62.8011 83.7327 62.2274 83.1589 61.5102 83.1589Z" fill="#98A8B3"/>
<path d="M22.2671 92.8386H18.2846C17.5758 92.8386 16.9937 93.4208 16.9937 94.1296V98.1036C16.9937 98.8124 17.5758 99.3946 18.2846 99.3946H22.2671C22.9843 99.3946 23.558 98.8124 23.558 98.1036V94.1296C23.558 93.4124 22.9843 92.8386 22.2671 92.8386Z" fill="#98A8B3"/>
<path d="M10.7663 81.2776C10.2685 80.7714 9.45002 80.7714 8.94377 81.2776L6.13408 84.0958C5.88096 84.3404 5.75439 84.6611 5.75439 85.007C5.75439 85.3529 5.88939 85.682 6.13408 85.9183L8.94377 88.7279C9.06319 88.8481 9.20518 88.9434 9.36156 89.0084C9.51795 89.0734 9.68565 89.1069 9.85502 89.1069C10.0244 89.1069 10.1921 89.0734 10.3485 89.0084C10.5049 88.9434 10.6468 88.8481 10.7663 88.7279L13.576 85.9183C14.0822 85.412 14.0822 84.5936 13.576 84.0958L10.7663 81.2776Z" fill="#CED9E0"/>
<path d="M4.69877 35.7486C6.31877 36.2295 8.09908 35.8667 9.49971 35.4702C10.6135 35.158 11.6597 34.9048 12.5625 35.1748C13.4569 35.428 13.8366 35.9342 14.4778 36.8623C15.1444 37.8242 15.9713 39.0223 17.76 39.7227C18.7388 40.1023 19.7513 40.3048 20.7553 40.3048C21.0591 40.3048 21.3375 40.288 21.6075 40.2627C22.2403 40.1952 22.7381 39.6636 22.7635 39.0308L22.8816 35.892C22.8985 35.5461 22.7381 35.2002 22.4935 34.947C22.2488 34.6939 21.8775 34.5505 21.5316 34.5505C20.806 34.5505 20.1225 34.4239 19.4475 34.1539C18.3928 33.7405 17.9288 33.0739 17.3466 32.2217C16.6716 31.2514 15.8363 30.0533 14.0391 29.5217C12.5456 29.083 10.9425 29.4205 9.55877 29.8086C8.36065 30.1461 7.23002 30.4077 6.19221 30.0955C5.54252 29.9014 4.99408 29.5555 4.39502 28.9564C4.10815 28.6864 3.70315 28.543 3.31502 28.602C2.91846 28.6527 2.57252 28.8889 2.37002 29.2348L0.935646 31.6817C0.657208 32.1627 0.707833 32.7617 1.07908 33.1836C1.92283 34.1455 2.97752 35.2255 4.69877 35.7486Z" fill="#98A8B3"/>
<path d="M106.624 94.568C106.362 94.4077 106.143 94.3908 105.898 94.3571C103.241 94.0787 100.937 93.1843 99.2327 91.8174C102.962 89.978 104.43 86.4174 104.236 84.249C104.236 84.1646 104.228 84.0549 104.211 83.9452C103.932 80.8149 102.009 78.7983 99.3086 78.7983C98.6421 78.7983 97.9333 78.9165 97.1486 79.1527C96.1615 79.448 93.3096 80.3171 91.8077 86.1221C89.9261 84.789 88.4074 82.6796 87.454 80.0133C87.3696 79.7687 87.3021 79.5662 87.0827 79.3552C86.6018 78.8743 85.7496 78.8743 85.2602 79.3552L82.4674 82.1565C81.9865 82.6374 81.9612 83.3968 82.3999 83.903C82.2733 83.7512 82.2227 83.6415 82.2311 83.6752C84.0705 88.8727 87.7155 92.2393 92.2718 92.9987C94.1365 97.0993 98.2033 99.7487 103.654 100.322C103.738 100.339 103.814 100.339 103.899 100.339C104.329 100.339 104.759 100.12 105.004 99.7233L107.063 96.3568C107.417 95.7324 107.223 94.9393 106.624 94.568ZM98.3299 86.3752C97.714 86.7127 97.098 86.9912 96.5665 87.1937C96.5327 86.6199 96.5327 85.928 96.6171 85.2193C96.6846 84.3502 97.7646 83.3883 98.6843 83.3883C98.9121 83.3883 99.1146 83.4474 99.2918 83.5655C99.6461 83.7933 99.8486 84.1815 99.8318 84.5865C99.8065 85.2193 99.2749 85.8521 98.3299 86.3752Z" fill="#98A8B3"/>
</svg>
