<svg width="64" height="64" viewBox="0 0 64 64" fill="none" xmlns="http://www.w3.org/2000/svg">
<path fill-rule="evenodd" clip-rule="evenodd" d="M13.3335 10.6667C11.8607 10.6667 10.6668 11.8606 10.6668 13.3333V50.6667C10.6668 52.1394 11.8607 53.3333 13.3335 53.3333H50.6668C52.1396 53.3333 53.3335 52.1394 53.3335 50.6667V13.3333C53.3335 11.8606 52.1396 10.6667 50.6668 10.6667H13.3335ZM5.3335 13.3333C5.3335 8.91507 8.91522 5.33335 13.3335 5.33335H50.6668C55.0851 5.33335 58.6668 8.91507 58.6668 13.3333V50.6667C58.6668 55.085 55.0851 58.6667 50.6668 58.6667H13.3335C8.91522 58.6667 5.3335 55.085 5.3335 50.6667V13.3333Z" fill="#8A9BA8"/>
<path fill-rule="evenodd" clip-rule="evenodd" d="M22.6667 21.3333C21.9303 21.3333 21.3333 21.9303 21.3333 22.6667C21.3333 23.403 21.9303 24 22.6667 24C23.403 24 24 23.403 24 22.6667C24 21.9303 23.403 21.3333 22.6667 21.3333ZM16 22.6667C16 18.9848 18.9848 16 22.6667 16C26.3486 16 29.3333 18.9848 29.3333 22.6667C29.3333 26.3486 26.3486 29.3333 22.6667 29.3333C18.9848 29.3333 16 26.3486 16 22.6667Z" fill="#8A9BA8"/>
<path fill-rule="evenodd" clip-rule="evenodd" d="M40.7809 24.781C41.8223 23.7397 43.5107 23.7397 44.5521 24.781L57.8855 38.1144C58.9269 39.1558 58.9269 40.8442 57.8855 41.8856C56.8441 42.927 55.1556 42.927 54.1142 41.8856L42.6665 30.4379L15.2188 57.8856C14.1774 58.927 12.489 58.927 11.4476 57.8856C10.4062 56.8442 10.4062 55.1558 11.4476 54.1144L40.7809 24.781Z" fill="#8A9BA8"/>
</svg>
