<svg width="56" height="56" viewBox="0 0 56 56" fill="none" xmlns="http://www.w3.org/2000/svg">
<path fill-rule="evenodd" clip-rule="evenodd" d="M11.6665 9.33329C10.3778 9.33329 9.33317 10.378 9.33317 11.6666V44.3333C9.33317 45.622 10.3778 46.6666 11.6665 46.6666H44.3332C45.6218 46.6666 46.6665 45.622 46.6665 44.3333V11.6666C46.6665 10.378 45.6218 9.33329 44.3332 9.33329H11.6665ZM4.6665 11.6666C4.6665 7.80063 7.80051 4.66663 11.6665 4.66663H44.3332C48.1992 4.66663 51.3332 7.80063 51.3332 11.6666V44.3333C51.3332 48.1993 48.1992 51.3333 44.3332 51.3333H11.6665C7.80051 51.3333 4.6665 48.1993 4.6665 44.3333V11.6666Z" fill="#8A9BA8"/>
<path fill-rule="evenodd" clip-rule="evenodd" d="M19.8333 18.6667C19.189 18.6667 18.6667 19.189 18.6667 19.8333C18.6667 20.4777 19.189 21 19.8333 21C20.4777 21 21 20.4777 21 19.8333C21 19.189 20.4777 18.6667 19.8333 18.6667ZM14 19.8333C14 16.6117 16.6117 14 19.8333 14C23.055 14 25.6667 16.6117 25.6667 19.8333C25.6667 23.055 23.055 25.6667 19.8333 25.6667C16.6117 25.6667 14 23.055 14 19.8333Z" fill="#8A9BA8"/>
<path fill-rule="evenodd" clip-rule="evenodd" d="M35.6836 21.6834C36.5948 20.7722 38.0722 20.7722 38.9834 21.6834L50.6501 33.3501C51.5613 34.2613 51.5613 35.7387 50.6501 36.6499C49.7389 37.5611 48.2615 37.5611 47.3502 36.6499L37.3335 26.6332L13.3167 50.6499C12.4055 51.5611 10.9281 51.5611 10.0169 50.6499C9.10569 49.7387 9.10569 48.2613 10.0169 47.3501L35.6836 21.6834Z" fill="#8A9BA8"/>
</svg>
