<svg width="30" height="30" viewBox="0 0 30 30" fill="none" xmlns="http://www.w3.org/2000/svg">
<g id="Image Icon">
<path id="Vector (Stroke)" fill-rule="evenodd" clip-rule="evenodd" d="M6.25 5C5.55964 5 5 5.55964 5 6.25V23.75C5 24.4404 5.55964 25 6.25 25H23.75C24.4404 25 25 24.4404 25 23.75V6.25C25 5.55964 24.4404 5 23.75 5H6.25ZM2.5 6.25C2.5 4.17893 4.17893 2.5 6.25 2.5H23.75C25.8211 2.5 27.5 4.17893 27.5 6.25V23.75C27.5 25.8211 25.8211 27.5 23.75 27.5H6.25C4.17893 27.5 2.5 25.8211 2.5 23.75V6.25Z" fill="#8A9BA8"/>
<path id="Vector (Stroke)_2" fill-rule="evenodd" clip-rule="evenodd" d="M10.625 10C10.2798 10 10 10.2798 10 10.625C10 10.9702 10.2798 11.25 10.625 11.25C10.9702 11.25 11.25 10.9702 11.25 10.625C11.25 10.2798 10.9702 10 10.625 10ZM7.5 10.625C7.5 8.89911 8.89911 7.5 10.625 7.5C12.3509 7.5 13.75 8.89911 13.75 10.625C13.75 12.3509 12.3509 13.75 10.625 13.75C8.89911 13.75 7.5 12.3509 7.5 10.625Z" fill="#8A9BA8"/>
<path id="Vector (Stroke)_3" fill-rule="evenodd" clip-rule="evenodd" d="M19.1161 11.6161C19.6043 11.128 20.3957 11.128 20.8839 11.6161L27.1339 17.8661C27.622 18.3543 27.622 19.1457 27.1339 19.6339C26.6457 20.122 25.8543 20.122 25.3661 19.6339L20 14.2678L7.13388 27.1339C6.64573 27.622 5.85427 27.622 5.36612 27.1339C4.87796 26.6457 4.87796 25.8543 5.36612 25.3661L19.1161 11.6161Z" fill="#8A9BA8"/>
</g>
</svg>
