<svg width="24" height="24" viewBox="0 0 24 24" fill="none" xmlns="http://www.w3.org/2000/svg">
<path d="M15.2399 12C15.2399 10.2 13.7999 8.76002 11.9999 8.76002C10.1999 8.76002 8.7599 10.2 8.7599 12C8.7599 13.8 10.1999 15.24 11.9999 15.24C13.7999 15.24 15.2399 13.8 15.2399 12ZM16.9199 12C16.9199 14.76 14.7599 16.92 11.9999 16.92C9.2399 16.92 7.0799 14.76 7.0799 12C7.0799 9.24002 9.2399 7.08002 11.9999 7.08002C14.7599 7.08002 16.9199 9.24002 16.9199 12ZM18.2399 6.84002C18.2399 7.56002 17.7599 8.04002 17.0399 8.04002C16.3199 8.04002 15.8399 7.56002 15.8399 6.84002C15.8399 6.12002 16.3199 5.64002 17.0399 5.64002C17.7599 5.64002 18.2399 6.24002 18.2399 6.84002ZM11.9999 4.08002C10.5599 4.08002 7.5599 3.96002 6.3599 4.44002C5.5199 4.80002 4.7999 5.52002 4.5599 6.36002C4.0799 7.56002 4.1999 10.56 4.1999 12C4.1999 13.44 4.0799 16.44 4.5599 17.64C4.7999 18.48 5.5199 19.2 6.3599 19.44C7.5599 19.92 10.6799 19.8 11.9999 19.8C13.3199 19.8 16.4399 19.92 17.6399 19.44C18.4799 19.08 19.0799 18.48 19.4399 17.64C19.9199 16.32 19.7999 13.32 19.7999 12C19.7999 10.68 19.9199 7.56002 19.4399 6.36002C19.1999 5.52002 18.4799 4.80002 17.6399 4.56002C16.4399 3.96002 13.4399 4.08002 11.9999 4.08002ZM21.5999 12V15.96C21.5999 17.4 21.1199 18.84 20.0399 20.04C18.9599 21.12 17.5199 21.6 15.9599 21.6H8.0399C6.5999 21.6 5.1599 21.12 3.9599 20.04C2.9999 18.96 2.3999 17.52 2.3999 15.96V12V8.04002C2.3999 6.48002 2.9999 5.04002 3.9599 3.96002C5.1599 3.00002 6.5999 2.40002 8.0399 2.40002H15.9599C17.3999 2.40002 18.8399 2.88002 20.0399 3.96002C20.9999 5.04002 21.5999 6.48002 21.5999 8.04002V12Z" fill="white"/>
</svg>
