<svg width="143" height="28" viewBox="0 0 143 28" fill="none" xmlns="http://www.w3.org/2000/svg">
<path fill-rule="evenodd" clip-rule="evenodd" d="M10.8111 8.95344L3.43061 0L0.285893 3.4306L9.24305 10.5721L7.57589 12.2931L7.21042 14.7828L0 20.7265L3.43059 23.8713L6.42822 20.1115L5.28882 27.8737H10.2918V24.729C10.2918 23.7816 11.0597 23.0137 12.0071 23.0137C12.9544 23.0137 13.7224 23.7816 13.7224 24.729V27.8737H18.8683L17.5762 20.0494L20.7265 23.8711L23.8712 20.4405L16.6961 14.7198L16.2953 12.2931L14.7812 10.678L23.8712 3.4306L20.7265 0L13.261 9.05649L12.0071 7.71893L10.8111 8.95344Z" fill="white" fill-opacity="0.5"/>
<path d="M31.1465 22.4506V22.4028L32.763 20.8972C32.9078 20.7538 32.9801 20.5626 32.9801 20.3236V7.77721C32.9801 7.53824 32.9078 7.34705 32.763 7.20366L31.1465 5.69809V5.6503H39.2049C41.9394 5.6503 44.0143 6.36724 45.4297 7.80111C46.8452 9.21906 47.5529 11.1787 47.5529 13.68C47.5529 16.4522 46.7809 18.611 45.2367 20.1564C43.7087 21.6858 41.5453 22.4506 38.7465 22.4506H31.1465ZM37.8538 21.9726H38.3605C39.8885 21.9726 40.9743 21.3194 41.6177 20.013C42.2771 18.6906 42.6069 16.6912 42.6069 14.0146C42.6069 11.3699 42.2852 9.39431 41.6418 8.08789C41.0145 6.78147 39.977 6.12826 38.5294 6.12826H37.7573C37.5804 6.12826 37.4678 6.16012 37.4195 6.22385C37.3713 6.27164 37.3472 6.39113 37.3472 6.58232V21.4946C37.3472 21.7177 37.3713 21.8531 37.4195 21.9009C37.4839 21.9487 37.6286 21.9726 37.8538 21.9726Z" fill="white"/>
<path d="M57.4935 22.6895C55.1934 22.6895 53.5206 22.2355 52.4751 21.3274C51.4456 20.4033 50.9309 18.8738 50.9309 16.7389V7.80111C50.9309 7.56213 50.8505 7.37095 50.6896 7.22756L49.242 5.69809V5.6503H57.0351V5.69809L55.5392 7.22756C55.3784 7.37095 55.2979 7.56213 55.2979 7.80111V16.4761C55.2979 18.356 55.6035 19.7103 56.2148 20.5387C56.8421 21.3672 57.7669 21.7814 58.9894 21.7814C60.1475 21.7814 61.0482 21.3274 61.6916 20.4192C62.335 19.5111 62.6567 18.1649 62.6567 16.3805V9.66515C62.6567 9.37838 62.5522 9.1155 62.3431 8.87652L59.9786 5.69809V5.6503H65.8415V5.69809L63.477 8.87652C63.2679 9.1155 63.1634 9.37838 63.1634 9.66515V16.3327C63.1634 18.4038 62.721 19.9811 61.8364 21.0645C60.9517 22.1479 59.5041 22.6895 57.4935 22.6895Z" fill="white"/>
<path d="M76.3332 20.1564C76.3332 20.4113 76.4217 20.6184 76.5986 20.7777L78.384 22.4028V22.4506H69.9395V22.4028L71.7249 20.7777C71.9019 20.6025 71.9903 20.3953 71.9903 20.1564V6.12826H70.6151C70.4221 6.12826 70.2853 6.15215 70.2049 6.19995C70.1406 6.23181 70.0682 6.33537 69.9878 6.51062L67.0201 12.1027H66.9719V5.6503H81.3517V12.1027H81.3034L78.3358 6.51062C78.2553 6.33537 78.1749 6.23181 78.0945 6.19995C78.0302 6.15215 77.9015 6.12826 77.7085 6.12826H76.3332V20.1564Z" fill="white"/>
<path d="M97.0792 5.86538V11.7443H97.0309L93.3636 6.24774C93.2027 5.99283 92.9373 5.86538 92.5674 5.86538H92.2296C89.7847 5.86538 88.5623 8.60568 88.5623 14.0863C88.5623 19.5191 89.8008 22.2355 92.2779 22.2355H92.5433C92.9132 22.2355 93.1786 22.124 93.3394 21.9009L97.0309 16.261H97.0792V22.2594C95.5028 22.5462 93.7898 22.6895 91.9401 22.6895C89.1413 22.6895 87.0503 21.9328 85.667 20.4192C84.2837 18.8898 83.5921 16.7788 83.5921 14.0863C83.5921 11.4097 84.3079 9.29872 85.7394 7.75332C87.1709 6.19198 89.2057 5.41132 91.8436 5.41132C93.6451 5.41132 95.3903 5.56267 97.0792 5.86538Z" fill="white"/>
<path d="M115.942 7.77721V20.3236C115.942 20.5626 116.014 20.7538 116.159 20.8972L117.752 22.4028V22.4506H109.741V22.4028L111.334 20.8972C111.495 20.7379 111.575 20.5467 111.575 20.3236V14.0863H105.978V20.3236C105.978 20.5626 106.058 20.7538 106.219 20.8972L107.811 22.4028V22.4506H99.7769V22.4028L101.393 20.8972C101.538 20.7538 101.611 20.5626 101.611 20.3236V7.77721C101.611 7.53824 101.538 7.34705 101.393 7.20366L99.7769 5.69809V5.6503H107.811V5.69809L106.219 7.20366C106.058 7.34705 105.978 7.53824 105.978 7.77721V13.6083H111.575V7.77721C111.575 7.53824 111.495 7.34705 111.334 7.20366L109.741 5.69809V5.6503H117.752V5.69809L116.159 7.20366C116.014 7.34705 115.942 7.53824 115.942 7.77721Z" fill="white"/>
<path d="M125.986 20.3236C125.986 20.5626 126.067 20.7538 126.227 20.8972L127.82 22.4028V22.4506H119.785V22.4028L121.402 20.8972C121.547 20.7538 121.619 20.5626 121.619 20.3236V7.77721C121.619 7.53824 121.547 7.34705 121.402 7.20366L119.785 5.69809V5.6503H127.82V5.69809L126.227 7.20366C126.067 7.34705 125.986 7.53824 125.986 7.77721V20.3236Z" fill="white"/>
<path d="M142.783 5.6503V11.4336H142.735L139.622 6.51062C139.462 6.25571 139.236 6.12826 138.947 6.12826H136.462C136.285 6.12826 136.172 6.16012 136.124 6.22385C136.076 6.27164 136.052 6.3991 136.052 6.60621V13.7995H137.692C137.934 13.7836 138.143 13.672 138.32 13.4649L140.491 10.9795H140.539V17.0735H140.491L138.32 14.5881C138.127 14.381 137.909 14.2775 137.668 14.2775H136.052V21.4946C136.052 21.7018 136.076 21.8372 136.124 21.9009C136.172 21.9487 136.285 21.9726 136.462 21.9726H139.236C139.59 21.9726 139.832 21.8611 139.96 21.638L142.952 16.5717H143V22.4506H129.851V22.4028L131.467 20.8972C131.612 20.7538 131.685 20.5626 131.685 20.3236V7.77721C131.685 7.53824 131.612 7.34705 131.467 7.20366L129.851 5.69809V5.6503H142.783Z" fill="white"/>
</svg>
