<svg width="143" height="28" viewBox="0 0 143 28" fill="none" xmlns="http://www.w3.org/2000/svg">
<path fill-rule="evenodd" clip-rule="evenodd" d="M10.8111 8.95344L3.43061 0L0.285893 3.4306L9.24305 10.5721L7.57589 12.2931L7.21042 14.7828L0 20.7265L3.43059 23.8713L6.42822 20.1115L5.28882 27.8737H10.2918V24.729C10.2918 23.7816 11.0597 23.0137 12.0071 23.0137C12.9544 23.0137 13.7224 23.7816 13.7224 24.729V27.8737H18.8683L17.5762 20.0494L20.7265 23.8711L23.8712 20.4405L16.6961 14.7198L16.2953 12.2931L14.7812 10.678L23.8712 3.4306L20.7265 0L13.261 9.05649L12.0071 7.71893L10.8111 8.95344Z" fill="#30404D" fill-opacity="0.5"/>
<path d="M31.1465 22.4506V22.4028L32.763 20.8973C32.9078 20.7539 32.9801 20.5627 32.9801 20.3237V7.77728C32.9801 7.5383 32.9078 7.34711 32.763 7.20372L31.1465 5.69815V5.65036H39.2049C41.9394 5.65036 44.0143 6.3673 45.4297 7.80117C46.8452 9.21912 47.5529 11.1788 47.5529 13.6801C47.5529 16.4522 46.7809 18.611 45.2367 20.1564C43.7087 21.6859 41.5453 22.4506 38.7465 22.4506H31.1465ZM37.8538 21.9727H38.3605C39.8885 21.9727 40.9743 21.3195 41.6177 20.013C42.2771 18.6907 42.6069 16.6912 42.6069 14.0146C42.6069 11.3699 42.2852 9.39437 41.6418 8.08795C41.0145 6.78153 39.977 6.12832 38.5294 6.12832H37.7573C37.5804 6.12832 37.4678 6.16018 37.4195 6.22391C37.3713 6.2717 37.3472 6.39119 37.3472 6.58238V21.4947C37.3472 21.7177 37.3713 21.8532 37.4195 21.901C37.4839 21.9488 37.6286 21.9727 37.8538 21.9727Z" fill="#30404D"/>
<path d="M57.4935 22.6896C55.1934 22.6896 53.5206 22.2355 52.4751 21.3274C51.4456 20.4034 50.9309 18.8739 50.9309 16.739V7.80117C50.9309 7.56219 50.8505 7.37101 50.6896 7.22762L49.242 5.69815V5.65036H57.0351V5.69815L55.5392 7.22762C55.3784 7.37101 55.2979 7.56219 55.2979 7.80117V16.4761C55.2979 18.3561 55.6035 19.7103 56.2148 20.5388C56.8421 21.3672 57.7669 21.7815 58.9894 21.7815C60.1475 21.7815 61.0482 21.3274 61.6916 20.4193C62.335 19.5112 62.6567 18.1649 62.6567 16.3805V9.66521C62.6567 9.37844 62.5522 9.11556 62.3431 8.87658L59.9786 5.69815V5.65036H65.8415V5.69815L63.477 8.87658C63.2679 9.11556 63.1634 9.37844 63.1634 9.66521V16.3327C63.1634 18.4039 62.721 19.9812 61.8364 21.0645C60.9517 22.1479 59.5041 22.6896 57.4935 22.6896Z" fill="#30404D"/>
<path d="M76.3332 20.1564C76.3332 20.4113 76.4217 20.6184 76.5986 20.7778L78.384 22.4028V22.4506H69.9395V22.4028L71.7249 20.7778C71.9019 20.6025 71.9903 20.3954 71.9903 20.1564V6.12832H70.6151C70.4221 6.12832 70.2853 6.15221 70.2049 6.20001C70.1406 6.23187 70.0682 6.33543 69.9878 6.51068L67.0201 12.1028H66.9719V5.65036H81.3517V12.1028H81.3034L78.3358 6.51068C78.2553 6.33543 78.1749 6.23187 78.0945 6.20001C78.0302 6.15221 77.9015 6.12832 77.7085 6.12832H76.3332V20.1564Z" fill="#30404D"/>
<path d="M97.0792 5.86544V11.7443H97.0309L93.3636 6.24781C93.2027 5.99289 92.9373 5.86544 92.5674 5.86544H92.2296C89.7847 5.86544 88.5623 8.60574 88.5623 14.0863C88.5623 19.5191 89.8008 22.2355 92.2779 22.2355H92.5433C92.9132 22.2355 93.1786 22.124 93.3394 21.901L97.0309 16.2611H97.0792V22.2594C95.5028 22.5462 93.7898 22.6896 91.9401 22.6896C89.1413 22.6896 87.0503 21.9328 85.667 20.4193C84.2837 18.8898 83.5921 16.7788 83.5921 14.0863C83.5921 11.4098 84.3079 9.29878 85.7394 7.75338C87.1709 6.19204 89.2057 5.41138 91.8436 5.41138C93.6451 5.41138 95.3903 5.56273 97.0792 5.86544Z" fill="#30404D"/>
<path d="M115.942 7.77728V20.3237C115.942 20.5627 116.014 20.7539 116.159 20.8973L117.752 22.4028V22.4506H109.741V22.4028L111.334 20.8973C111.495 20.7379 111.575 20.5468 111.575 20.3237V14.0863H105.978V20.3237C105.978 20.5627 106.058 20.7539 106.219 20.8973L107.811 22.4028V22.4506H99.7769V22.4028L101.393 20.8973C101.538 20.7539 101.611 20.5627 101.611 20.3237V7.77728C101.611 7.5383 101.538 7.34711 101.393 7.20372L99.7769 5.69815V5.65036H107.811V5.69815L106.219 7.20372C106.058 7.34711 105.978 7.5383 105.978 7.77728V13.6084H111.575V7.77728C111.575 7.5383 111.495 7.34711 111.334 7.20372L109.741 5.69815V5.65036H117.752V5.69815L116.159 7.20372C116.014 7.34711 115.942 7.5383 115.942 7.77728Z" fill="#30404D"/>
<path d="M125.986 20.3237C125.986 20.5627 126.067 20.7539 126.227 20.8973L127.82 22.4028V22.4506H119.785V22.4028L121.402 20.8973C121.547 20.7539 121.619 20.5627 121.619 20.3237V7.77728C121.619 7.5383 121.547 7.34711 121.402 7.20372L119.785 5.69815V5.65036H127.82V5.69815L126.227 7.20372C126.067 7.34711 125.986 7.5383 125.986 7.77728V20.3237Z" fill="#30404D"/>
<path d="M142.783 5.65036V11.4337H142.735L139.622 6.51068C139.462 6.25577 139.236 6.12832 138.947 6.12832H136.462C136.285 6.12832 136.172 6.16018 136.124 6.22391C136.076 6.2717 136.052 6.39916 136.052 6.60628V13.7996H137.692C137.934 13.7836 138.143 13.6721 138.32 13.465L140.491 10.9796H140.539V17.0736H140.491L138.32 14.5882C138.127 14.3811 137.909 14.2775 137.668 14.2775H136.052V21.4947C136.052 21.7018 136.076 21.8372 136.124 21.901C136.172 21.9488 136.285 21.9727 136.462 21.9727H139.236C139.59 21.9727 139.832 21.8611 139.96 21.6381L142.952 16.5717H143V22.4506H129.851V22.4028L131.467 20.8973C131.612 20.7539 131.685 20.5627 131.685 20.3237V7.77728C131.685 7.5383 131.612 7.34711 131.467 7.20372L129.851 5.69815V5.65036H142.783Z" fill="#30404D"/>
</svg>
