<svg width="16" height="16" viewBox="0 0 16 16" fill="none" xmlns="http://www.w3.org/2000/svg">
<path d="M15.1194 1.01402C15.0011 0.98588 14.8766 1.00107 14.7685 1.05683L14 1.44058L13.225 1.05308C13.1556 1.01837 13.0791 1.0003 13.0014 1.0003C12.9238 1.0003 12.8473 1.01837 12.7779 1.05308L11.9932 1.4409L11.2188 1.05308C11.1492 1.01812 11.0723 0.999912 10.9944 0.999912C10.9165 0.999912 10.8397 1.01812 10.77 1.05308L10 1.43965L9.23598 1.05402C9.16654 1.01882 9.08984 1.00032 9.01198 0.99999C8.93413 0.999664 8.85727 1.01752 8.78754 1.05215L8.00004 1.44121L7.22504 1.05277C7.1555 1.01808 7.07885 1.00002 7.00113 1.00002C6.92342 1.00002 6.84677 1.01808 6.77723 1.05277L6.00004 1.44058L5.22379 1.05277C5.12372 1.00261 5.00971 0.987476 4.90002 1.0098C4.79032 1.03212 4.6913 1.09061 4.61879 1.1759C4.54064 1.26904 4.4985 1.38713 4.50004 1.50871V8.99996L4.5016 9.00152H10.5C10.7653 9.00152 11.0196 9.10688 11.2071 9.29441C11.3947 9.48195 11.5 9.7363 11.5 10.0015V13.25C11.5 14.2165 12.5335 15 13.5 15H13.875C14.306 15 14.7193 14.8288 15.0241 14.524C15.3288 14.2193 15.5 13.8059 15.5 13.375V1.49996C15.5001 1.38805 15.4627 1.27934 15.3937 1.19124C15.3247 1.10314 15.2281 1.04074 15.1194 1.01402ZM13 7.49996H9.01567C8.74567 7.49996 8.51254 7.29246 8.50067 7.02246C8.49763 6.95498 8.50829 6.88759 8.53201 6.82435C8.55574 6.7611 8.59203 6.70332 8.6387 6.65449C8.68537 6.60566 8.74145 6.5668 8.80355 6.54024C8.86565 6.51368 8.9325 6.49997 9.00004 6.49996H12.9844C13.2544 6.49996 13.4875 6.70746 13.4994 6.97746C13.5025 7.04493 13.4918 7.11233 13.4681 7.17557C13.4443 7.23881 13.4081 7.29659 13.3614 7.34542C13.3147 7.39425 13.2586 7.43312 13.1965 7.45968C13.1344 7.48624 13.0676 7.49994 13 7.49996ZM13 4.99996H7.01567C6.74567 4.99996 6.51254 4.79246 6.50067 4.52246C6.49763 4.45498 6.50829 4.38759 6.53201 4.32435C6.55574 4.2611 6.59203 4.20332 6.6387 4.15449C6.68537 4.10566 6.74145 4.0668 6.80355 4.04024C6.86565 4.01368 6.9325 3.99997 7.00004 3.99996H12.9844C13.2544 3.99996 13.4875 4.20746 13.4994 4.47746C13.5025 4.54493 13.4918 4.61233 13.4681 4.67557C13.4443 4.73881 13.4081 4.79659 13.3614 4.84542C13.3147 4.89425 13.2586 4.93312 13.1965 4.95968C13.1344 4.98624 13.0676 4.99994 13 4.99996Z" fill="white"/>
<path d="M10.5 13.25V10.5C10.5 10.3674 10.4473 10.2402 10.3536 10.1464C10.2598 10.0527 10.1326 10 10 10H1.5C1.23477 10.0008 0.980656 10.1067 0.793254 10.2944C0.605851 10.4821 0.500412 10.7363 0.5 11.0016C0.5 12.5812 0.680625 13.2381 0.951875 13.7381C1.41219 14.5872 2.24563 15 3.5 15H11.1775C11.2022 15 11.2263 14.9927 11.2468 14.9791C11.2674 14.9654 11.2834 14.946 11.2929 14.9233C11.3024 14.9005 11.305 14.8754 11.3003 14.8512C11.2956 14.827 11.2839 14.8047 11.2666 14.7872C10.9709 14.4906 10.5 14.0938 10.5 13.25Z" fill="white"/>
</svg>
