<svg width="32" height="32" viewBox="0 0 32 32" fill="none" xmlns="http://www.w3.org/2000/svg">
<path fill-rule="evenodd" clip-rule="evenodd" d="M17.4084 8.04707C14.9898 8.37862 12.8931 10.0683 12.1178 12.3109C11.9992 12.6539 11.8663 13.1563 11.8226 13.4273C11.7731 13.7332 11.7427 15.8311 11.7424 18.96L11.7417 24L13.3273 22.4278L14.9127 20.8557H18.6638C22.3825 20.8557 22.4213 20.8541 23.1452 20.6719C25.5759 20.0599 27.4003 18.1543 27.8993 15.7063C28.07 14.8687 28.018 13.4822 27.7858 12.6829C27.4777 11.6218 26.9162 10.6825 26.1146 9.88703C25.2613 9.0402 24.2755 8.48466 23.0925 8.18404C22.5455 8.0451 22.2037 8.02388 20.1814 8.00379C18.9212 7.99128 17.6734 8.01076 17.4084 8.04707ZM22.5714 9.45232C24.4224 9.82374 25.9799 11.2677 26.491 13.0862C26.7028 13.8398 26.7184 14.9717 26.5268 15.689C25.9987 17.6664 24.3139 19.1811 22.3053 19.4842C21.9648 19.5356 20.3407 19.5671 18.03 19.5671H14.3037L13.7101 20.1528L13.1165 20.7384V17.2466C13.1165 14.0194 13.1279 13.7105 13.2672 13.1703C13.5644 12.0169 14.3956 10.8508 15.3852 10.1989C15.8997 9.85997 16.7687 9.5119 17.3329 9.41866C17.5553 9.3819 18.6925 9.34787 19.86 9.34302C21.508 9.33612 22.1144 9.3606 22.5714 9.45232ZM3.24777 12.2068C3.04277 12.3886 3 12.4813 3 12.7451C3 13.0089 3.04277 13.1017 3.24777 13.2835L3.49546 13.5031H6.42888H9.36237L9.58898 13.3139C9.86623 13.0824 9.94307 12.8128 9.82934 12.4709C9.67017 11.9921 9.6345 11.9871 6.40031 11.9871H3.49546L3.24777 12.2068ZM15.7453 13.5008C15.1928 13.7226 14.9887 14.556 15.3753 15.0119C15.9614 15.7032 17.0881 15.3254 17.0881 14.4376C17.0881 14.2491 17.0295 13.9965 16.9579 13.8761C16.737 13.505 16.171 13.3298 15.7453 13.5008ZM19.4144 13.5685C18.9205 13.8674 18.7774 14.443 19.0759 14.9289C19.5092 15.6342 20.6119 15.4464 20.8335 14.6295C20.9038 14.3705 20.8925 14.2792 20.7552 13.9978C20.4966 13.4676 19.8978 13.276 19.4144 13.5685ZM23.2302 13.4967C22.6744 13.734 22.4737 14.5561 22.8603 15.0119C23.2639 15.488 23.9743 15.4863 24.3796 15.0083C24.5295 14.8315 24.5731 14.6958 24.5731 14.4058C24.5731 14.0884 24.535 13.9902 24.3223 13.7599C24.121 13.5419 24.0039 13.4824 23.7304 13.4585C23.5428 13.4422 23.3177 13.4594 23.2302 13.4967ZM5.05019 15.5482C4.79945 15.6487 4.56229 15.9995 4.56229 16.2698C4.56229 16.5941 4.80853 16.8906 5.15765 16.9869C5.56184 17.0983 9.03433 17.0816 9.37406 16.9667C9.56469 16.9021 9.68239 16.7929 9.78428 16.5858C9.97133 16.2057 9.88433 15.8814 9.53216 15.6458C9.28049 15.4775 9.23261 15.474 7.24329 15.4787C6.12581 15.4813 5.13894 15.5126 5.05019 15.5482ZM6.45263 18.5878C6.27719 18.6892 6.08984 19.0553 6.08984 19.2969C6.08984 19.4025 6.19005 19.6003 6.31255 19.7364L6.53519 19.984L7.89738 20.0044C9.43317 20.0273 9.55973 19.9966 9.78115 19.548C9.89762 19.3119 9.90648 19.2216 9.83453 19.0053C9.68025 18.5414 9.54713 18.5056 7.98285 18.5082C7.17707 18.5095 6.52977 18.5432 6.45263 18.5878Z" fill="white"/>
</svg>
