<svg width="24" height="25" viewBox="0 0 24 25" fill="none" xmlns="http://www.w3.org/2000/svg">
<g id="shopping-cart" clip-path="url(#clip0_2_747)">
<path id="Vector" d="M1 1.5H5L7.68 14.89C7.77144 15.3504 8.02191 15.764 8.38755 16.0583C8.75318 16.3526 9.2107 16.509 9.68 16.5H19.4C19.8693 16.509 20.3268 16.3526 20.6925 16.0583C21.0581 15.764 21.3086 15.3504 21.4 14.89L23 6.5H6M10 21.5C10 22.0523 9.55228 22.5 9 22.5C8.44772 22.5 8 22.0523 8 21.5C8 20.9477 8.44772 20.5 9 20.5C9.55228 20.5 10 20.9477 10 21.5ZM21 21.5C21 22.0523 20.5523 22.5 20 22.5C19.4477 22.5 19 22.0523 19 21.5C19 20.9477 19.4477 20.5 20 20.5C20.5523 20.5 21 20.9477 21 21.5Z" stroke="#8A9BA8" stroke-width="2.5" stroke-linecap="round" stroke-linejoin="round"/>
</g>
<defs>
<clipPath id="clip0_2_747">
<rect width="24" height="24" fill="white" transform="translate(0 0.5)"/>
</clipPath>
</defs>
</svg>
