<svg width="22" height="22" viewBox="0 0 22 22" fill="none" xmlns="http://www.w3.org/2000/svg">
<g id="truck">
<path id="Vector" d="M14.3335 3.5H1.8335V14.3333H14.3335V3.5Z" stroke="#394B59" stroke-width="2" stroke-linecap="round" stroke-linejoin="round"/>
<path id="Vector_2" d="M14.3335 7.66675H17.6668L20.1668 10.1667V14.3334H14.3335V7.66675Z" stroke="#394B59" stroke-width="2" stroke-linecap="round" stroke-linejoin="round"/>
<path id="Vector_3" d="M5.58333 18.4999C6.73393 18.4999 7.66667 17.5672 7.66667 16.4166C7.66667 15.266 6.73393 14.3333 5.58333 14.3333C4.43274 14.3333 3.5 15.266 3.5 16.4166C3.5 17.5672 4.43274 18.4999 5.58333 18.4999Z" stroke="#394B59" stroke-width="2" stroke-linecap="round" stroke-linejoin="round"/>
<path id="Vector_4" d="M16.4168 18.4999C17.5674 18.4999 18.5002 17.5672 18.5002 16.4166C18.5002 15.266 17.5674 14.3333 16.4168 14.3333C15.2662 14.3333 14.3335 15.266 14.3335 16.4166C14.3335 17.5672 15.2662 18.4999 16.4168 18.4999Z" stroke="#394B59" stroke-width="2" stroke-linecap="round" stroke-linejoin="round"/>
</g>
</svg>
